<?xml version="1.0" standalone="no"?>
<!DOCTYPE svg PUBLIC "-//W3C//DTD SVG 20010904//EN"
 "http://www.w3.org/TR/2001/REC-SVG-20010904/DTD/svg10.dtd">
<svg version="1.0" xmlns="http://www.w3.org/2000/svg"
 width="1280.000000pt" height="947.000000pt" viewBox="0 0 1280.000000 947.000000"
 preserveAspectRatio="xMidYMid meet">
<metadata>
Created by potrace 1.15, written by Peter Selinger 2001-2017
</metadata>
<g transform="translate(0.000000,947.000000) scale(0.100000,-0.100000)"
fill="#000000" stroke="none">
<path d="M203 9452 c-93 -33 -169 -112 -193 -203 -7 -24 -9 -486 -8 -1291 l3
-1253 30 -54 c37 -66 92 -115 162 -141 53 -20 77 -20 1293 -20 1216 0 1240 0
1293 20 70 26 125 75 162 141 l30 54 0 1275 0 1275 -29 53 c-33 60 -76 101
-139 134 l-42 23 -1255 2 c-1184 2 -1258 1 -1307 -15z m2599 -75 c26 -15 49
-31 52 -36 7 -11 -132 -98 -197 -124 -39 -15 -71 -20 -127 -18 -201 7 -2002 4
-2050 -3 -47 -7 -66 -4 -132 18 -74 24 -218 108 -218 126 0 11 62 49 98 60 15
5 590 8 1277 7 l1250 -2 47 -28z m-2654 -108 c72 -48 111 -89 138 -142 l25
-48 3 -1007 c2 -554 7 -1031 11 -1060 11 -82 -30 -158 -143 -261 -97 -90 -105
-90 -117 -7 -3 22 -5 595 -3 1271 3 1035 5 1234 17 1258 8 15 16 27 18 27 3 0
25 -14 51 -31z m2772 -1285 c0 -1199 -2 -1304 -29 -1304 -3 0 -43 34 -88 75
-61 57 -90 92 -114 140 -30 61 -31 68 -24 137 5 40 9 517 10 1059 2 542 6 996
10 1010 16 50 62 103 130 151 l70 49 17 -38 c16 -35 17 -126 18 -1279z m-2545
1175 l45 -11 -32 -34 -32 -33 -18 41 c-25 56 -28 53 37 37z m2273 -34 l-22
-45 -27 33 c-15 17 -25 34 -24 36 4 4 63 18 82 20 9 1 5 -14 -9 -44z m-173 6
c49 -22 90 -62 119 -116 l21 -40 0 -940 0 -940 -22 -41 c-29 -53 -93 -110
-140 -124 -27 -8 -314 -10 -985 -8 l-946 3 -43 30 c-24 17 -57 50 -74 74 l-30
43 -3 946 c-3 1061 -7 998 70 1067 75 68 8 64 1048 64 896 1 947 0 985 -18z
m161 -2248 c-1 -2 -21 4 -43 13 l-41 16 31 28 32 28 12 -41 c7 -23 11 -42 9
-44z m-2229 53 l26 -24 -38 -16 c-21 -9 -39 -15 -41 -13 -4 4 18 77 23 77 2 0
16 -11 30 -24z m1086 -70 c526 0 977 2 1002 4 68 5 188 -59 290 -156 91 -86
91 -91 5 -136 l-52 -28 -1247 0 -1247 0 -51 25 c-88 44 -87 45 8 135 116 108
250 179 309 162 14 -4 456 -7 983 -6z"/>
<path d="M1970 8095 l0 -265 35 0 35 0 0 265 0 265 -35 0 -35 0 0 -265z"/>
<path d="M1048 8339 c-51 -15 -111 -70 -138 -126 -31 -65 -32 -188 -3 -253 25
-57 75 -105 130 -126 54 -21 171 -15 226 11 32 16 37 23 37 52 0 18 -2 33 -4
33 -2 0 -24 -12 -50 -26 -78 -44 -187 -33 -238 23 -52 58 -65 195 -25 273 35
69 64 85 156 85 68 0 83 -3 120 -28 l42 -28 -3 38 c-3 33 -8 41 -42 57 -45 22
-154 30 -208 15z"/>
<path d="M1400 8265 c0 -48 -2 -55 -20 -55 -15 0 -20 -7 -20 -25 0 -18 5 -25
20 -25 19 0 20 -7 21 -117 0 -185 18 -213 137 -213 60 0 62 1 62 25 0 24 -3
25 -53 25 -29 0 -58 5 -65 12 -8 8 -12 54 -12 140 l0 127 63 3 c56 3 62 5 65
26 3 21 0 22 -62 22 l-66 0 0 55 0 55 -35 0 -35 0 0 -55z"/>
<path d="M1805 8208 c-11 -6 -30 -20 -42 -31 l-23 -20 0 26 c0 23 -4 27 -30
27 l-30 0 0 -190 0 -190 30 0 30 0 0 108 c0 175 27 226 118 224 48 -1 48 -1
44 29 -4 26 -8 29 -41 29 -20 0 -45 -6 -56 -12z"/>
<path d="M3412 9455 c-78 -24 -138 -80 -180 -165 l-27 -55 0 -1255 0 -1255 26
-56 c31 -66 84 -120 148 -151 l46 -23 1270 0 1270 0 46 23 c63 31 117 86 148
152 l26 55 0 1255 0 1255 -26 55 c-31 66 -85 121 -148 152 l-46 23 -1255 2
c-1027 1 -1263 -1 -1298 -12z m2549 -56 c21 -7 53 -24 70 -38 l32 -27 -67 -43
c-109 -71 -178 -95 -266 -92 -98 4 -1972 4 -2070 0 -88 -3 -153 19 -264 91
l-68 44 31 27 c18 14 47 31 64 37 48 15 2487 16 2538 1z m-2528 -194 c21 -20
47 -55 58 -77 21 -41 21 -44 20 -1022 -2 -881 0 -987 15 -1035 32 -107 -2
-186 -136 -315 l-93 -89 -16 29 c-14 26 -16 148 -16 1284 0 1181 1 1257 18
1287 l17 33 48 -30 c27 -16 65 -46 85 -65z m2682 33 c13 -45 15 -205 15 -1255
0 -1187 -2 -1281 -32 -1299 -15 -10 -178 157 -206 211 -20 40 -25 62 -23 110
1 33 4 514 6 1068 4 993 4 1008 24 1050 12 24 36 58 55 76 42 41 129 100 138
94 4 -2 14 -27 23 -55z m-2508 -87 c8 -4 2 -17 -18 -39 l-29 -33 -10 26 c-6
15 -15 35 -21 46 -10 19 -8 20 28 13 21 -3 43 -9 50 -13z m2263 10 c0 -6 -4
-12 -9 -16 -5 -3 -13 -19 -16 -36 l-7 -31 -35 34 -34 33 38 12 c48 15 63 15
63 4z m-190 -32 c60 -27 88 -54 116 -114 l24 -50 0 -928 c0 -1012 3 -957 -57
-1035 -14 -19 -49 -45 -78 -58 l-52 -24 -950 2 -950 3 -49 30 c-30 19 -60 49
-79 79 l-30 49 -3 929 c-1 607 1 942 8 967 16 60 62 115 121 145 l53 26 940 0
c926 0 942 -1 986 -21z m153 -2207 c16 -47 15 -48 -38 -26 l-37 15 28 30 c15
16 29 28 30 26 1 -1 9 -21 17 -45z m-2203 -13 c0 -4 -11 -10 -24 -13 -13 -3
-31 -9 -40 -12 -14 -5 -15 -3 -7 17 5 13 12 33 15 43 6 18 8 18 31 -4 14 -13
25 -27 25 -31z m1045 -47 c675 -2 961 0 988 8 32 9 48 8 101 -10 82 -27 133
-61 230 -151 l79 -73 -36 -31 c-20 -18 -54 -37 -75 -43 -55 -17 -2478 -17
-2533 -1 -21 7 -54 25 -73 41 l-35 29 82 76 c45 41 99 87 119 100 54 36 159
74 183 65 11 -3 448 -8 970 -10z"/>
<path d="M4740 8095 l0 -265 35 0 35 0 0 265 0 265 -35 0 -35 0 0 -265z"/>
<path d="M4315 8133 c-43 -115 -87 -230 -97 -256 l-18 -48 37 3 c37 3 39 5 59
63 l21 60 119 0 118 0 20 -62 c20 -63 20 -63 58 -63 l38 0 -13 33 c-7 17 -51
132 -98 254 l-84 223 -40 0 -40 0 -80 -207z m175 -10 l38 -103 -94 0 -93 0 23
63 c13 34 34 91 47 126 20 58 23 61 32 40 5 -13 26 -70 47 -126z"/>
<path d="M4938 8268 c-3 -46 -6 -53 -25 -56 -35 -5 -32 -52 2 -52 l25 0 0
-130 c0 -73 5 -140 11 -153 15 -34 49 -47 119 -47 57 0 60 1 60 25 0 23 -3 25
-49 25 -76 0 -81 9 -81 156 l0 124 65 0 c63 0 65 1 65 25 0 24 -2 25 -65 25
l-65 0 0 55 c0 54 0 55 -29 55 -29 0 -30 -2 -33 -52z"/>
<path d="M6684 9452 c-77 -27 -128 -73 -166 -150 l-33 -67 0 -1255 0 -1255 26
-56 c32 -68 81 -118 145 -150 l49 -24 1250 -3 c1413 -3 1313 -8 1406 76 28 25
60 63 72 86 l22 41 0 1285 0 1285 -27 47 c-15 25 -48 64 -72 85 -88 78 1 73
-1385 73 -1154 -1 -1239 -2 -1287 -18z m2581 -66 c84 -39 85 -47 10 -96 -108
-70 -177 -94 -265 -91 -98 4 -1972 4 -2070 0 -88 -3 -157 21 -266 92 l-67 43
32 27 c18 14 47 31 64 37 21 6 455 10 1272 11 l1240 1 50 -24z m-2552 -185
c21 -20 48 -54 59 -75 20 -39 20 -55 19 -1025 -2 -882 0 -992 14 -1040 31
-101 -7 -183 -141 -310 l-87 -83 -16 29 c-14 25 -16 158 -16 1283 0 1186 1
1257 18 1288 l18 32 47 -31 c26 -18 64 -48 85 -68z m2679 51 c10 -30 13 -274
13 -1277 0 -1258 -1 -1305 -35 -1293 -5 2 -48 41 -95 87 -105 104 -131 153
-127 236 2 33 5 516 7 1073 l3 1012 25 43 c14 23 39 55 55 70 39 38 125 96
134 91 3 -2 12 -21 20 -42z m-2509 -101 c16 -6 14 -10 -13 -36 -16 -16 -31
-27 -33 -24 -1 2 -10 21 -20 42 l-17 39 32 -7 c18 -4 41 -11 51 -14z m2249
-23 c-9 -24 -17 -45 -18 -46 -1 -2 -16 11 -33 30 l-30 33 37 12 c60 19 62 17
44 -29z m-146 -13 c30 -19 60 -49 79 -79 l30 -49 0 -952 0 -952 -30 -49 c-19
-30 -49 -60 -79 -79 l-49 -30 -962 0 -962 0 -49 30 c-30 19 -60 49 -79 79
l-30 49 -3 931 c-2 623 0 943 7 967 18 61 67 118 124 145 l52 24 951 -3 951
-2 49 -30z m134 -2233 c-4 -1 -24 5 -44 13 l-38 16 28 30 28 29 16 -42 c9 -24
13 -44 10 -46z m-2233 56 c29 -27 29 -34 -1 -42 -13 -3 -31 -8 -39 -12 -12 -4
-13 1 -4 35 6 23 13 41 16 41 3 0 15 -10 28 -22z m1058 -76 c663 -2 955 0 992
8 47 10 57 9 132 -20 68 -26 95 -45 181 -122 99 -89 100 -91 83 -111 -10 -11
-40 -30 -68 -43 l-50 -24 -1235 0 c-771 0 -1248 4 -1270 10 -19 5 -52 23 -72
40 l-37 31 70 67 c39 37 93 82 118 100 61 42 169 84 196 74 11 -3 443 -8 960
-10z"/>
<path d="M7910 8065 l0 -235 25 0 25 0 0 235 0 235 -25 0 -25 0 0 -235z"/>
<path d="M7050 8055 l0 -225 96 0 c124 0 177 14 224 59 42 40 60 89 60 165 0
159 -85 226 -287 226 l-93 0 0 -225z m209 165 c53 -15 89 -55 101 -115 12 -58
1 -129 -26 -170 -22 -33 -84 -55 -159 -55 l-65 0 0 175 0 175 58 0 c31 0 73
-4 91 -10z"/>
<path d="M8460 8215 c0 -38 -3 -45 -20 -45 -15 0 -20 -7 -20 -25 0 -18 5 -25
20 -25 19 0 20 -7 20 -97 0 -165 18 -193 120 -193 43 0 50 3 50 20 0 15 -7 20
-29 20 -16 0 -41 4 -55 10 -26 9 -26 10 -26 125 l0 115 55 0 c52 0 55 1 55 25
0 24 -3 25 -55 25 l-55 0 0 45 c0 43 -1 45 -30 45 -29 0 -30 -2 -30 -45z"/>
<path d="M7618 8168 c-106 -28 -152 -179 -85 -279 41 -62 132 -85 230 -58 30
8 37 14 37 36 0 20 -3 24 -17 18 -34 -15 -133 -18 -162 -5 -27 11 -61 61 -61
89 0 7 45 11 128 13 l127 3 -3 45 c-7 106 -91 165 -194 138z m113 -65 c10 -10
21 -30 24 -45 l7 -28 -102 0 c-100 0 -101 0 -94 23 8 28 33 57 59 68 29 12 86
3 106 -18z"/>
<path d="M8181 8170 c-77 -18 -121 -81 -121 -173 0 -138 113 -210 261 -165 32
9 39 16 39 36 0 21 -3 23 -22 17 -13 -4 -53 -9 -90 -12 -65 -5 -69 -4 -98 25
-18 18 -30 41 -30 56 l0 26 125 0 125 0 0 40 c0 105 -88 174 -189 150z m98
-66 c19 -16 31 -35 31 -50 0 -24 -1 -24 -95 -24 -54 0 -95 4 -95 10 0 25 28
64 55 76 45 20 70 17 104 -12z"/>
<path d="M8805 8168 c-76 -17 -118 -79 -119 -174 0 -75 24 -120 80 -151 71
-41 215 -24 222 26 3 21 1 23 -20 16 -12 -4 -51 -9 -85 -12 -74 -6 -107 10
-129 62 -8 19 -14 37 -14 40 0 3 59 5 131 5 l132 0 -6 52 c-13 105 -90 159
-192 136z m113 -73 c12 -14 22 -35 22 -46 0 -18 -8 -19 -100 -19 l-100 0 11
27 c6 15 15 34 22 41 32 40 109 38 145 -3z"/>
<path d="M319 6340 c-102 -18 -193 -92 -229 -186 -20 -55 -20 -65 -18 -1312
l3 -1257 23 -46 c27 -55 83 -113 137 -142 l40 -22 1285 0 1285 0 40 22 c51 27
106 85 136 143 l24 45 0 1270 0 1270 -23 46 c-31 63 -86 117 -152 148 l-55 26
-1225 1 c-674 1 -1246 -2 -1271 -6z m2531 -74 c39 -20 70 -45 70 -56 0 -11
-144 -99 -187 -114 -90 -32 -146 -38 -208 -21 -87 22 -1841 23 -1927 0 -94
-24 -212 7 -331 87 -34 22 -64 43 -66 44 -15 13 60 61 114 75 17 4 586 6 1265
6 1186 -2 1236 -3 1270 -21z m-2599 -147 c58 -41 112 -110 124 -160 3 -14 8
-473 9 -1020 2 -547 6 -1015 11 -1041 13 -86 -13 -138 -126 -250 -54 -54 -102
-98 -107 -98 -31 0 -33 88 -30 1330 3 1306 3 1302 45 1286 8 -4 41 -25 74 -47z
m2725 10 c10 -26 13 -312 13 -1270 1 -1241 0 -1299 -33 -1299 -7 0 -53 42
-103 93 -114 117 -129 152 -117 270 8 78 12 1789 5 1947 -3 65 0 82 22 125 14
28 43 66 64 86 47 45 115 90 127 86 5 -2 15 -19 22 -38z m-2532 -95 c20 -3 36
-9 36 -13 0 -4 -12 -19 -28 -34 l-27 -26 -21 45 c-14 30 -17 43 -8 40 7 -3 29
-8 48 -12z m2274 -29 l-22 -45 -28 27 c-15 15 -28 30 -28 33 0 6 55 23 92 29
4 0 -2 -19 -14 -44z m-206 15 c56 -16 119 -69 147 -125 l26 -49 0 -931 c0
-765 -2 -937 -14 -969 -7 -22 -33 -58 -56 -82 -78 -77 -31 -74 -1055 -74 -979
0 -963 -1 -1033 53 -18 14 -46 49 -62 78 l-30 54 0 935 0 936 25 48 c29 56 80
101 136 121 32 12 203 14 959 15 604 0 933 -4 957 -10z m-2050 -2250 c-20 -10
-38 -16 -40 -15 -2 2 2 22 9 44 l12 42 29 -27 28 -27 -38 -17z m2231 43 c3
-16 8 -35 12 -45 6 -15 3 -15 -39 0 l-45 17 26 27 c33 35 39 35 46 1z m-1133
-77 c503 0 947 2 985 5 65 4 76 1 145 -33 52 -25 101 -61 160 -116 85 -79 85
-80 66 -101 -10 -11 -39 -31 -65 -43 l-46 -23 -1240 0 c-1164 0 -1243 1 -1286
18 -25 10 -56 28 -68 41 l-22 23 71 69 c134 129 234 180 330 167 30 -5 467 -8
970 -7z"/>
<path d="M1610 4970 l0 -270 30 0 30 0 0 270 0 270 -30 0 -30 0 0 -270z"/>
<path d="M1255 5208 c-3 -7 -45 -120 -95 -250 -49 -131 -90 -242 -90 -248 0
-5 15 -10 33 -10 31 0 33 3 55 65 l24 65 118 0 118 0 22 -65 c21 -63 23 -65
56 -65 19 0 34 3 34 8 0 4 -43 119 -95 256 -52 137 -95 251 -95 253 0 10 -81
1 -85 -9z m94 -193 c22 -61 41 -114 41 -118 0 -9 -180 -9 -180 1 -1 19 86 240
91 234 4 -4 25 -57 48 -117z"/>
<path d="M1800 5146 c0 -49 -2 -55 -22 -58 -15 -2 -24 -11 -26 -25 -3 -19 1
-23 22 -23 l24 0 4 -140 c3 -136 4 -140 30 -166 24 -24 35 -27 95 -28 66 -1
68 0 68 24 0 23 -4 25 -55 28 -30 2 -58 6 -62 10 -4 4 -8 66 -9 137 l-1 130
66 3 c63 3 67 4 64 25 -3 20 -10 22 -65 25 l-62 3 -3 52 c-3 51 -4 52 -35 55
l-33 3 0 -55z"/>
<path d="M3569 6340 c-102 -18 -193 -92 -229 -187 -20 -54 -20 -64 -18 -1311
l3 -1257 23 -46 c27 -55 83 -113 137 -142 l40 -22 1285 0 1285 0 46 27 c54 32
112 93 136 145 17 36 18 113 18 1308 l0 1270 -23 46 c-31 63 -86 117 -152 148
l-55 26 -1225 1 c-674 1 -1246 -2 -1271 -6z m2531 -74 c39 -20 70 -45 70 -56
0 -11 -144 -99 -187 -114 -90 -32 -146 -38 -208 -21 -87 22 -1841 23 -1927 0
-94 -24 -212 7 -331 87 -34 22 -64 43 -66 44 -15 13 60 61 114 75 17 4 586 6
1265 6 1186 -2 1236 -3 1270 -21z m-2611 -139 c68 -48 127 -122 136 -171 4
-17 8 -479 10 -1026 2 -547 5 -1022 7 -1055 4 -84 -25 -136 -135 -241 -48 -46
-92 -84 -96 -84 -30 0 -32 98 -29 1330 3 1258 4 1290 37 1290 4 0 36 -20 70
-43z m2737 2 c10 -26 13 -312 13 -1270 1 -1238 -1 -1299 -33 -1299 -18 0 -182
170 -201 209 -16 32 -17 112 -16 1109 l2 1074 23 46 c14 26 42 63 63 83 47 45
115 90 127 86 5 -2 15 -19 22 -38z m-2532 -95 c20 -3 36 -9 36 -13 0 -4 -12
-19 -28 -34 l-27 -26 -21 45 c-14 30 -17 43 -8 40 7 -3 29 -8 48 -12z m2274
-29 l-22 -45 -28 27 c-15 15 -28 30 -28 33 0 6 55 23 92 29 4 0 -2 -19 -14
-44z m-206 15 c56 -16 119 -69 147 -125 l26 -49 0 -931 c0 -745 -3 -937 -13
-967 -7 -21 -33 -58 -57 -82 -77 -80 -27 -76 -1055 -76 -979 0 -963 -1 -1033
53 -18 14 -46 49 -62 78 l-30 54 0 935 0 936 25 48 c29 56 80 101 136 121 32
12 203 14 959 15 604 0 933 -4 957 -10z m-2049 -2251 c-21 -9 -39 -15 -41 -14
-2 2 2 22 9 44 l12 42 29 -28 29 -28 -38 -16z m2230 44 c3 -16 8 -35 12 -45 6
-15 3 -15 -39 0 l-45 17 26 27 c33 35 39 35 46 1z m-1133 -77 c503 0 947 2
985 5 65 4 76 1 145 -33 51 -25 102 -62 160 -116 84 -79 85 -80 66 -101 -10
-11 -39 -31 -65 -43 l-46 -23 -1240 0 c-1164 0 -1243 1 -1286 18 -25 10 -56
28 -68 41 l-22 23 71 69 c134 129 234 180 330 167 30 -5 467 -8 970 -7z"/>
<path d="M4495 5207 c-3 -7 -4 -123 -3 -257 l3 -245 32 -3 32 -3 3 123 3 123
103 3 102 3 0 29 0 30 -105 0 -106 0 3 73 3 72 113 3 112 3 0 29 0 30 -145 0
c-108 0 -147 -3 -150 -13z"/>
<path d="M4976 5059 c-89 -135 -106 -167 -106 -200 l0 -39 115 0 115 0 0 -60
0 -60 35 0 35 0 0 60 0 60 35 0 c32 0 35 2 35 30 0 28 -3 30 -35 30 l-35 0 0
170 0 170 -44 0 -43 0 -107 -161z m124 -44 l0 -135 -85 0 c-47 0 -85 3 -85 7
0 7 162 263 167 263 2 0 3 -61 3 -135z"/>
<path d="M6849 6340 c-95 -16 -168 -68 -214 -151 l-30 -54 0 -1280 0 -1280 22
-41 c36 -67 70 -101 135 -133 l61 -31 1257 0 c1403 0 1308 -5 1394 71 25 22
57 65 73 97 l28 57 0 1260 0 1260 -24 52 c-27 61 -93 126 -159 156 l-47 22
-1225 1 c-674 1 -1246 -2 -1271 -6z m2497 -65 c46 -14 115 -58 104 -68 -3 -2
-33 -23 -67 -45 -119 -80 -237 -111 -331 -87 -86 23 -1840 22 -1927 0 -94 -25
-202 4 -333 89 l-73 47 23 18 c33 26 68 43 103 52 17 4 575 7 1241 8 1043 1
1217 -1 1260 -14z m-2601 -131 c101 -67 165 -157 164 -231 -1 -21 -3 -451 -5
-956 -4 -709 -2 -932 8 -975 33 -152 5 -226 -131 -353 -47 -44 -88 -79 -92
-79 -27 0 -29 103 -29 1307 0 1063 2 1249 14 1278 8 19 19 35 23 35 5 0 26
-12 48 -26z m2756 -1 c12 -24 14 -221 17 -1243 2 -668 0 -1238 -3 -1266 -11
-94 -19 -94 -116 -1 -104 99 -142 165 -139 241 0 28 3 501 5 1051 2 550 6
1014 10 1031 9 49 68 123 136 171 34 23 66 43 69 43 4 0 13 -12 21 -27z
m-2527 -109 c20 -3 36 -9 36 -13 0 -4 -13 -19 -28 -34 l-28 -27 -22 46 c-17
35 -19 45 -8 41 8 -3 31 -9 50 -13z m2275 -20 c-10 -20 -20 -42 -22 -48 -3
-10 -56 41 -57 55 0 5 50 20 91 28 4 0 -2 -15 -12 -35z m-153 -19 c30 -19 60
-49 79 -79 l30 -49 3 -941 c3 -1039 6 -988 -60 -1055 -18 -18 -50 -42 -72 -54
l-41 -22 -924 -3 c-1048 -3 -997 -6 -1076 73 -79 79 -76 29 -73 1071 3 875 4
921 22 954 35 66 87 110 156 131 14 4 448 7 966 6 l941 -2 49 -30z m-2069
-2210 c-1 -1 -20 -9 -43 -18 l-41 -16 16 44 16 44 27 -26 c15 -15 27 -27 25
-28z m2192 33 c26 -70 27 -68 -21 -50 -24 8 -45 17 -47 18 -3 3 50 53 57 54 1
0 6 -10 11 -22z m-1129 -82 c503 0 947 3 985 5 66 4 76 1 145 -34 50 -24 104
-64 160 -117 83 -78 84 -79 66 -99 -10 -11 -39 -31 -65 -43 l-46 -23 -1250 0
-1250 0 -40 21 c-22 12 -48 31 -59 43 -18 20 -18 21 59 93 93 87 132 115 205
145 47 20 64 22 115 16 33 -4 472 -8 975 -7z"/>
<path d="M8030 5126 l-365 -133 -3 -49 -3 -49 368 -133 c202 -73 371 -133 376
-132 4 0 7 22 7 49 0 37 -4 50 -17 56 -10 3 -139 49 -288 102 -148 52 -274 98
-278 103 -4 4 125 54 287 111 l296 104 0 53 c0 28 -3 52 -7 51 -5 0 -172 -60
-373 -133z"/>
<path d="M10069 6340 c-95 -16 -183 -83 -223 -169 l-21 -46 -3 -1249 c-2
-1091 0 -1256 13 -1302 18 -61 87 -144 149 -177 l41 -22 1285 0 1285 0 41 22
c23 12 61 44 86 72 84 93 79 -7 76 1406 l-3 1250 -23 46 c-31 63 -86 117 -152
148 l-55 26 -1225 1 c-674 1 -1246 -2 -1271 -6z m2531 -74 c39 -20 70 -45 70
-56 0 -11 -144 -99 -187 -114 -90 -32 -146 -38 -208 -21 -87 22 -1841 23
-1927 0 -94 -24 -196 2 -323 83 -38 24 -72 46 -74 48 -14 13 59 61 114 75 17
4 586 6 1265 6 1186 -2 1236 -3 1270 -21z m-2599 -148 c61 -42 113 -109 124
-158 3 -16 8 -475 9 -1022 2 -546 6 -1014 11 -1040 13 -86 -13 -138 -125 -250
-53 -54 -102 -98 -107 -98 -32 0 -34 83 -31 1325 3 1296 4 1307 44 1291 9 -3
43 -25 75 -48z m2725 11 c10 -26 13 -312 13 -1270 1 -1241 0 -1299 -33 -1299
-24 0 -185 176 -207 226 -20 44 -21 56 -13 143 8 87 13 1759 6 1942 -3 66 0
84 21 125 14 27 43 65 64 85 44 43 114 89 127 85 5 -1 15 -18 22 -37z m-2532
-95 c20 -3 36 -9 36 -13 0 -4 -12 -19 -28 -34 l-27 -26 -21 45 c-14 30 -17 43
-8 40 7 -3 29 -8 48 -12z m2274 -29 l-22 -45 -28 27 c-15 15 -28 30 -28 33 0
6 55 23 92 29 4 0 -2 -19 -14 -44z m-206 15 c56 -16 119 -69 147 -125 l26 -49
0 -931 c0 -765 -2 -937 -14 -969 -7 -22 -33 -58 -56 -82 -78 -77 -31 -74
-1055 -74 -980 0 -961 -1 -1032 54 -19 14 -47 48 -61 75 l-27 49 0 944 0 945
23 43 c27 51 79 96 133 115 32 12 203 14 959 15 604 0 933 -4 957 -10z m-2049
-2251 c-21 -9 -39 -15 -41 -14 -2 2 2 22 9 44 l12 42 29 -28 29 -28 -38 -16z
m2230 44 c3 -16 8 -35 12 -45 6 -15 3 -15 -39 0 l-45 17 26 27 c33 35 39 35
46 1z m-1133 -77 c503 0 947 2 985 5 65 4 76 1 145 -32 52 -26 101 -61 160
-117 85 -79 85 -80 66 -101 -10 -11 -39 -31 -65 -43 l-46 -23 -1240 0 c-1164
0 -1243 1 -1286 18 -25 10 -56 28 -68 41 l-22 23 71 69 c133 129 233 179 330
166 30 -4 467 -7 970 -6z"/>
<path d="M11157 5326 c-32 -7 -60 -16 -64 -19 -10 -11 -9 -87 2 -87 6 1 37 7
70 15 81 20 178 19 222 -1 47 -23 66 -56 65 -111 -1 -82 -71 -123 -208 -123
l-44 0 0 -39 0 -38 79 -6 c137 -9 191 -53 191 -154 0 -44 -5 -58 -30 -87 -17
-19 -48 -40 -68 -47 -71 -25 -201 -13 -294 26 -16 6 -18 1 -18 -43 l0 -49 58
-16 c131 -35 250 -29 342 18 104 53 150 184 101 290 -21 46 -40 65 -95 92
l-38 20 30 12 c109 45 138 196 54 284 -50 53 -98 71 -202 73 -53 2 -121 -3
-153 -10z"/>
<path d="M234 2962 c-77 -27 -128 -73 -166 -150 l-33 -67 0 -1255 0 -1255 26
-56 c32 -68 81 -118 145 -150 l49 -24 2740 -3 c1966 -2 2753 0 2785 8 62 16
135 65 169 114 64 92 61 28 61 1366 0 1087 -2 1222 -16 1270 -20 69 -61 128
-112 164 -87 60 112 56 -2866 56 -2581 -1 -2734 -2 -2782 -18z m5549 -53 c21
-5 52 -23 69 -38 l32 -28 -73 -47 c-100 -66 -169 -89 -256 -86 -104 2 -4988 2
-5070 -1 -82 -3 -155 23 -261 91 l-65 43 24 24 c55 55 -120 52 2832 53 1887 0
2742 -3 2768 -11z m-5520 -198 c21 -20 48 -54 59 -75 20 -39 20 -55 19 -1024
-2 -896 0 -990 15 -1038 31 -101 -8 -187 -143 -313 l-87 -82 -15 28 c-14 25
-16 167 -16 1283 0 1186 1 1257 18 1288 l18 32 47 -31 c26 -18 64 -48 85 -68z
m5668 62 c12 -24 14 -222 17 -1248 2 -671 0 -1239 -3 -1261 -3 -23 -12 -49
-19 -59 -11 -16 -20 -10 -99 65 -102 96 -141 164 -138 238 1 26 4 499 6 1052
2 553 6 1016 9 1030 9 47 65 119 127 165 34 25 67 45 73 45 7 0 19 -12 27 -27z
m-5493 -112 c9 -5 4 -15 -18 -36 -16 -16 -31 -27 -33 -24 -1 2 -10 21 -20 42
l-17 38 37 -7 c21 -4 44 -10 51 -13z m5252 15 c0 -2 -8 -22 -18 -45 l-19 -40
-32 33 -33 34 39 10 c43 11 63 14 63 8z m-159 -51 c24 -17 57 -50 74 -74 l30
-43 3 -940 c1 -652 -1 -952 -9 -980 -15 -56 -90 -130 -149 -146 -35 -10 -576
-12 -2481 -10 l-2436 3 -49 30 c-30 19 -60 49 -79 79 l-30 49 -3 931 c-2 623
0 943 7 967 18 61 67 118 124 145 l52 24 2452 -3 2451 -2 43 -30z m123 -2191
c17 -50 19 -49 -53 -22 l-24 9 28 29 c16 17 30 30 31 30 1 0 9 -20 18 -46z
m-5217 14 c29 -27 29 -34 -1 -42 -13 -3 -31 -8 -39 -12 -12 -4 -13 1 -4 35 6
23 13 41 16 41 3 0 15 -10 28 -22z m2563 -76 c1733 -2 2456 0 2482 8 29 8 49
8 86 -4 95 -28 153 -65 259 -167 l66 -63 -38 -33 c-21 -18 -54 -37 -74 -43
-49 -13 -5472 -14 -5521 0 -19 5 -52 23 -72 40 l-37 31 75 72 c116 110 256
187 309 169 11 -4 1120 -8 2465 -10z"/>
<path d="M866 1733 l-195 -218 97 -5 97 -5 3 -187 2 -188 200 0 200 0 2 188 3
187 97 5 98 5 -196 218 c-108 119 -200 217 -204 217 -4 0 -96 -98 -204 -217z
m377 -5 l165 -183 -79 -3 -79 -3 0 -189 0 -190 -180 0 -180 0 0 190 0 189 -79
3 -79 3 165 183 c90 100 168 182 173 182 5 0 83 -82 173 -182z"/>
<path d="M2130 1615 l0 -235 24 0 c24 0 24 1 28 120 3 114 4 121 29 146 35 34
90 37 121 6 21 -20 22 -32 23 -147 l0 -125 28 0 29 0 -4 141 -3 141 -33 29
c-44 40 -116 41 -161 3 l-31 -26 0 91 c0 90 0 91 -25 91 l-25 0 0 -235z"/>
<path d="M2520 1815 c0 -32 2 -35 30 -35 28 0 30 3 30 35 0 32 -2 35 -30 35
-28 0 -30 -3 -30 -35z"/>
<path d="M2755 1838 c-33 -17 -45 -40 -45 -80 0 -36 -2 -38 -30 -38 -25 0 -30
-4 -30 -25 0 -21 5 -25 29 -25 l30 0 -2 -145 -2 -145 28 0 27 0 0 145 0 145
45 0 c41 0 45 2 45 25 0 23 -4 25 -45 25 -43 0 -45 1 -45 28 0 39 17 52 67 52
39 0 43 2 43 25 0 23 -3 25 -47 25 -27 0 -57 -6 -68 -12z"/>
<path d="M1801 1827 c-54 -21 -81 -60 -81 -118 0 -71 30 -100 130 -124 41 -10
85 -27 98 -38 27 -25 29 -67 3 -98 -27 -33 -121 -39 -185 -11 l-46 21 0 -33
c0 -31 3 -34 44 -45 61 -15 150 -14 190 3 52 22 76 60 76 122 0 73 -33 105
-132 129 -98 23 -118 37 -118 80 0 29 6 39 33 55 38 24 77 25 143 5 27 -8 50
-15 52 -15 1 0 2 11 2 25 0 14 -8 29 -19 34 -32 17 -152 22 -190 8z"/>
<path d="M2900 1766 c0 -35 -4 -45 -20 -49 -12 -3 -20 -14 -20 -26 0 -14 6
-21 20 -21 19 0 20 -7 20 -97 0 -112 12 -168 40 -183 10 -5 44 -10 74 -10 49
0 56 2 56 20 0 15 -7 20 -29 20 -16 0 -41 4 -55 10 -26 9 -26 10 -26 125 l0
115 55 0 c52 0 55 1 55 25 0 24 -3 25 -55 25 l-55 0 0 45 c0 43 -1 45 -30 45
-29 0 -30 -2 -30 -44z"/>
<path d="M2527 1713 c-4 -3 -7 -80 -7 -170 l0 -163 30 0 30 0 0 170 0 170 -23
0 c-13 0 -27 -3 -30 -7z"/>
<path d="M6447 2966 c-58 -21 -114 -62 -147 -108 -63 -87 -61 -22 -58 -1389
l3 -1244 28 -57 c32 -64 80 -111 146 -142 l46 -21 1270 0 1270 0 53 29 c60 33
101 76 134 139 l23 42 0 1275 0 1275 -27 51 c-30 56 -77 102 -141 136 l-42 23
-1260 2 c-1042 2 -1267 0 -1298 -11z m2580 -71 c83 -42 83 -45 -3 -100 -113
-71 -165 -89 -254 -86 -102 4 -1987 4 -2075 0 -57 -2 -82 2 -133 23 -66 27
-192 105 -192 118 0 11 63 50 98 60 15 5 585 9 1268 9 l1240 1 51 -25z m-2628
-124 c67 -46 118 -100 138 -149 12 -29 15 -191 17 -1036 2 -550 7 -1027 11
-1059 11 -88 -28 -161 -143 -266 -97 -90 -105 -90 -117 -7 -3 22 -5 595 -3
1271 3 1035 5 1234 17 1258 8 15 16 27 18 27 2 0 30 -18 62 -39z m2761 -1277
c0 -1218 -2 -1312 -31 -1302 -4 2 -44 36 -88 76 -60 54 -88 88 -111 136 -29
59 -31 69 -25 128 4 34 9 511 10 1059 2 548 6 1007 10 1020 16 50 62 103 130
151 l70 49 17 -38 c16 -35 17 -126 18 -1279z m-2545 1175 l45 -11 -32 -34 -32
-33 -18 41 c-25 56 -28 53 37 37z m2273 -34 l-22 -45 -27 33 c-15 17 -25 34
-24 36 4 4 63 18 82 20 9 1 5 -14 -9 -44z m-173 6 c49 -22 90 -62 119 -116
l21 -40 0 -940 0 -940 -22 -40 c-12 -22 -36 -54 -55 -72 -69 -67 -10 -63
-1048 -63 -935 0 -940 0 -985 21 -50 24 -100 76 -121 125 -21 49 -21 1889 0
1938 20 48 71 101 119 125 42 21 48 21 987 21 895 0 947 -1 985 -19z m161
-2248 c-1 -2 -21 4 -43 13 l-41 16 31 28 32 28 12 -41 c7 -23 11 -42 9 -44z
m-2227 53 l23 -25 -37 -16 c-21 -8 -39 -14 -41 -12 -5 5 19 77 26 77 4 0 17
-11 29 -24z m1061 -74 c672 -2 957 0 986 8 80 23 204 -39 343 -169 l74 -69
-43 -31 c-24 -17 -60 -36 -81 -41 -24 -7 -465 -9 -1281 -8 -1359 3 -1254 -1
-1328 57 l-25 20 85 80 c113 106 253 181 305 163 11 -3 445 -8 965 -10z"/>
<path d="M7705 1887 l-250 -92 -3 -36 -3 -35 188 -68 c103 -38 223 -81 266
-97 l77 -28 0 38 0 38 -209 74 c-115 41 -207 76 -204 79 2 3 95 37 206 76
l202 72 3 36 c2 25 -1 36 -10 35 -7 0 -125 -42 -263 -92z"/>
<path d="M7690 958 c0 -13 -7 -47 -14 -75 -13 -50 -13 -53 4 -53 25 0 70 77
70 118 0 29 -3 32 -30 32 -24 0 -30 -4 -30 -22z"/>
<path d="M9710 2971 c-83 -26 -150 -82 -191 -161 l-24 -45 0 -1275 0 -1275 24
-45 c32 -61 76 -107 136 -138 l50 -27 1270 0 1270 0 57 28 c64 32 111 80 142
146 l21 46 0 1265 0 1265 -28 57 c-34 69 -91 121 -164 148 -53 20 -75 20
-1296 19 -683 0 -1253 -4 -1267 -8z m2529 -61 c37 -10 101 -50 101 -63 0 -15
-148 -104 -206 -123 -43 -14 -78 -18 -129 -15 -91 5 -1959 5 -2050 0 -51 -3
-86 1 -129 15 -70 23 -209 111 -203 129 2 6 27 24 56 39 l53 28 1237 0 c771 0
1249 -4 1270 -10z m-2533 -184 c54 -45 97 -131 95 -189 -1 -23 -4 -447 -7
-942 -3 -653 -2 -918 7 -965 20 -113 21 -135 10 -176 -16 -61 -61 -122 -150
-202 l-81 -74 -15 36 c-13 31 -15 202 -15 1275 0 1116 2 1245 16 1281 l16 40
41 -24 c22 -14 59 -41 83 -60z m2690 34 c10 -27 13 -301 13 -1264 1 -1209 -1
-1306 -30 -1306 -4 0 -46 36 -93 81 -94 89 -136 159 -135 225 1 22 3 500 5
1064 l3 1025 28 55 c22 41 46 68 98 108 39 29 76 51 84 50 8 -2 20 -19 27 -38z
m-2533 -91 l37 -10 -27 -35 -28 -34 -17 37 c-26 60 -26 59 35 42z m2289 -1
c-5 -7 -16 -28 -24 -47 l-14 -34 -27 36 -27 36 32 10 c50 14 73 14 60 -1z
m-187 -27 c50 -22 108 -86 126 -137 12 -32 14 -205 14 -959 0 -1037 4 -977
-77 -1050 -76 -69 -11 -65 -1050 -65 -930 0 -942 0 -984 21 -24 11 -59 38 -78
59 -69 76 -67 42 -64 1061 l3 914 22 40 c12 22 36 54 55 72 68 66 8 62 1048
62 893 1 947 0 985 -18z m145 -2182 c0 -11 5 -29 11 -41 15 -28 7 -31 -41 -12
l-42 17 29 27 c34 34 43 36 43 9z m-2190 -36 c0 -5 -73 -34 -76 -30 -2 2 1 20
7 40 l10 37 29 -22 c17 -12 30 -23 30 -25z m1065 -47 c528 1 979 3 1002 4 65
5 171 -51 273 -145 47 -43 86 -81 88 -85 4 -11 -35 -48 -73 -68 -27 -16 -136
-17 -1280 -20 -1363 -3 -1289 -6 -1360 53 l-30 25 75 70 c127 119 252 188 315
172 17 -4 462 -6 990 -6z"/>
<path d="M10971 2328 c-5 -13 -12 -39 -16 -58 -14 -66 -21 -72 -83 -69 -54 3
-57 2 -57 -22 0 -22 4 -24 53 -27 57 -3 57 -3 41 -67 l-11 -44 -62 -3 c-58 -3
-61 -4 -61 -28 0 -23 4 -25 53 -28 28 -2 52 -6 52 -10 0 -4 -7 -32 -15 -62
-19 -72 -19 -72 12 -68 24 3 29 10 43 68 l16 65 51 3 51 3 -9 -38 c-24 -97
-24 -103 4 -103 27 0 35 15 53 108 6 30 8 31 68 34 58 3 61 4 64 31 3 27 3 27
-53 27 l-55 0 6 28 c21 83 15 77 82 80 58 3 62 4 62 27 0 23 -4 25 -48 25 -27
0 -51 3 -54 6 -3 3 0 29 8 57 20 74 18 87 -10 87 -21 0 -26 -8 -43 -72 l-20
-73 -46 -3 c-54 -4 -56 0 -32 88 8 30 15 56 15 58 0 1 -11 2 -25 2 -17 0 -28
-7 -34 -22z m105 -195 c-3 -10 -8 -35 -12 -55 l-6 -38 -54 0 c-38 0 -52 4 -49
13 2 6 9 31 15 55 l11 42 50 0 c43 0 50 -2 45 -17z"/>
<path d="M10875 1515 c-5 -2 -22 -6 -37 -9 -23 -5 -28 -12 -28 -37 0 -26 3
-30 18 -24 9 4 52 10 94 12 72 5 78 4 102 -20 27 -27 33 -65 16 -97 -12 -23
-61 -40 -116 -40 -40 0 -44 -2 -44 -24 0 -21 6 -24 57 -31 65 -8 108 -26 117
-50 13 -36 6 -84 -18 -112 -21 -24 -32 -28 -93 -31 -48 -3 -80 1 -107 12 -50
21 -48 21 -44 -16 3 -29 9 -35 43 -46 53 -18 169 -11 217 12 78 38 106 152 53
215 -14 16 -35 33 -45 36 -18 6 -15 10 20 44 33 31 40 45 40 75 0 87 -64 136
-175 135 -33 0 -64 -2 -70 -4z"/>
</g>
</svg>
