<?xml version="1.0" standalone="no"?>
<!DOCTYPE svg PUBLIC "-//W3C//DTD SVG 20010904//EN"
 "http://www.w3.org/TR/2001/REC-SVG-20010904/DTD/svg10.dtd">
<svg version="1.0" xmlns="http://www.w3.org/2000/svg"
 width="1280.000000pt" height="640.000000pt" viewBox="0 0 1280.000000 640.000000"
 preserveAspectRatio="xMidYMid meet">
<metadata>
Created by potrace 1.15, written by Peter Selinger 2001-2017
</metadata>
<g transform="translate(0.000000,640.000000) scale(0.100000,-0.100000)"
fill="#000000" stroke="none">
<path d="M16 5024 c-14 -14 -16 -193 -16 -1823 0 -1392 3 -1810 12 -1819 18
-18 12758 -18 12776 0 9 9 12 427 12 1819 0 1630 -2 1809 -16 1823 -14 15
-608 16 -6384 16 -5776 0 -6370 -1 -6384 -16z m12758 -10 c14 -14 16 -191 16
-1805 0 -1215 -3 -1797 -10 -1810 -11 -19 -93 -19 -6380 -19 -6287 0 -6369 0
-6380 19 -7 13 -10 595 -10 1810 0 1614 2 1791 16 1805 14 15 607 16 6374 16
5767 0 6360 -1 6374 -16z"/>
<path d="M182 4858 c-9 -9 -12 -76 -12 -249 0 -131 3 -244 6 -253 3 -9 13 -16
22 -16 14 0 14 2 -1 13 -16 11 -17 36 -15 257 l3 245 244 3 c185 2 247 -1 259
-10 13 -11 14 -10 10 2 -4 13 -43 15 -254 18 -186 2 -253 -1 -262 -10z"/>
<path d="M1267 4863 c-13 -13 -7 -25 7 -14 9 8 86 11 257 9 l244 -3 3 -245 c2
-221 1 -246 -15 -257 -9 -7 -12 -13 -7 -13 31 0 34 27 34 265 0 174 -3 244
-12 253 -13 13 -499 18 -511 5z"/>
<path d="M1817 4863 c-4 -3 -7 -11 -7 -17 0 -6 4 -6 8 2 7 9 65 12 258 10
l249 -3 3 -245 c2 -221 1 -246 -15 -257 -9 -7 -12 -13 -7 -13 31 0 34 27 34
265 0 174 -3 244 -12 253 -13 13 -499 18 -511 5z"/>
<path d="M2367 4863 c-3 -5 110 -8 251 -8 l257 0 3 -245 c2 -221 1 -246 -15
-257 -9 -7 -12 -13 -7 -13 31 0 34 27 34 265 0 174 -3 244 -12 253 -14 14
-503 18 -511 5z"/>
<path d="M2912 4858 c-9 -9 -12 -79 -12 -253 0 -238 3 -265 34 -265 5 0 2 6
-7 13 -16 11 -17 36 -15 257 l3 245 249 3 c193 2 251 -1 258 -10 4 -7 8 -120
8 -250 0 -215 -2 -238 -17 -247 -10 -6 -13 -11 -7 -11 30 -1 34 26 34 258 0
142 -4 241 -10 253 -10 18 -24 19 -258 19 -180 0 -251 -3 -260 -12z"/>
<path d="M3720 4851 c-6 -12 -10 -109 -10 -246 0 -218 6 -265 31 -265 6 0 3 7
-5 16 -14 13 -16 50 -16 248 0 186 3 236 14 245 9 8 86 11 257 9 l244 -3 3
-245 c2 -221 1 -246 -15 -257 -9 -7 -12 -13 -7 -13 31 0 34 27 34 265 0 174
-3 244 -12 253 -9 9 -80 12 -260 12 -234 0 -248 -1 -258 -19z"/>
<path d="M4270 4851 c-6 -12 -10 -109 -10 -246 0 -218 6 -265 31 -265 6 0 3 7
-5 16 -14 13 -16 50 -16 247 0 128 4 238 8 245 7 9 65 12 258 10 l249 -3 3
-245 c2 -221 1 -246 -15 -257 -9 -7 -12 -13 -7 -13 31 0 34 27 34 265 0 174
-3 244 -12 253 -9 9 -80 12 -260 12 -234 0 -248 -1 -258 -19z"/>
<path d="M4823 4863 c-7 -2 -13 -10 -13 -16 0 -8 4 -7 12 1 9 9 79 12 255 12
220 0 243 -2 252 -17 6 -10 11 -13 11 -8 1 32 -25 35 -264 34 -133 0 -247 -3
-253 -6z"/>
<path d="M5362 4858 c-9 -9 -12 -79 -12 -253 0 -238 3 -265 34 -265 5 0 2 6
-7 13 -16 11 -17 36 -15 257 l3 245 249 3 c193 2 251 -1 258 -10 4 -7 8 -120
8 -250 0 -215 -2 -238 -17 -247 -10 -6 -13 -11 -7 -11 30 -1 34 26 34 258 0
142 -4 241 -10 253 -10 18 -24 19 -258 19 -180 0 -251 -3 -260 -12z"/>
<path d="M6160 4851 c-6 -12 -10 -109 -10 -246 0 -218 6 -265 31 -265 6 0 3 7
-5 16 -14 13 -16 50 -16 248 0 186 3 236 14 245 9 8 86 11 257 9 l244 -3 3
-245 c2 -221 1 -246 -15 -257 -9 -7 -12 -13 -7 -13 31 0 34 27 34 265 0 174
-3 244 -12 253 -9 9 -80 12 -260 12 -234 0 -248 -1 -258 -19z"/>
<path d="M6710 4851 c-6 -12 -10 -109 -10 -246 0 -218 6 -265 31 -265 6 0 3 7
-5 16 -14 13 -16 50 -16 247 0 128 4 238 8 245 7 9 65 12 258 10 l249 -3 3
-245 c2 -221 1 -246 -15 -257 -9 -7 -12 -13 -7 -13 31 0 34 27 34 265 0 174
-3 244 -12 253 -9 9 -80 12 -260 12 -234 0 -248 -1 -258 -19z"/>
<path d="M7259 4853 c-11 -15 -11 -16 1 -5 10 9 77 12 257 12 220 0 243 -2
252 -17 6 -10 11 -13 11 -8 1 32 -26 35 -266 35 -218 0 -243 -2 -255 -17z"/>
<path d="M7802 4858 c-9 -9 -12 -79 -12 -253 0 -238 3 -265 34 -265 5 0 2 6
-7 13 -16 11 -17 36 -15 257 l3 245 249 3 c193 2 251 -1 258 -10 4 -7 8 -120
8 -250 0 -215 -2 -238 -17 -247 -10 -6 -13 -11 -7 -11 30 -1 34 26 34 258 0
142 -4 241 -10 253 -10 18 -24 19 -258 19 -180 0 -251 -3 -260 -12z"/>
<path d="M8597 4863 c-13 -13 -7 -25 7 -14 9 8 86 11 257 9 l244 -3 3 -245 c2
-221 1 -246 -15 -257 -9 -7 -12 -13 -7 -13 31 0 34 27 34 265 0 174 -3 244
-12 253 -13 13 -499 18 -511 5z"/>
<path d="M9140 4851 c-6 -12 -10 -109 -10 -246 0 -218 6 -265 31 -265 6 0 3 7
-5 16 -14 13 -16 50 -16 247 0 128 4 238 8 245 7 9 65 12 258 10 l249 -3 3
-245 c2 -221 1 -246 -15 -257 -9 -7 -12 -13 -7 -13 31 0 34 27 34 265 0 174
-3 244 -12 253 -9 9 -80 12 -260 12 -234 0 -248 -1 -258 -19z"/>
<path d="M9692 4858 c-9 -9 -12 -77 -12 -253 0 -238 3 -265 34 -265 5 0 2 6
-7 13 -16 11 -17 36 -15 257 l3 245 244 3 c185 2 247 -1 259 -10 13 -11 14
-10 10 2 -4 13 -43 15 -254 18 -186 2 -253 -1 -262 -10z"/>
<path d="M2352 4604 c-2 -238 1 -264 32 -264 5 0 2 6 -7 13 -15 11 -17 41 -20
252 l-2 240 -3 -241z"/>
<path d="M8888 4829 c-25 -14 -22 -38 7 -51 19 -9 22 -14 14 -25 -7 -7 -20
-11 -30 -8 -11 4 -19 2 -19 -4 0 -12 29 -15 54 -5 23 9 20 45 -4 51 -30 8 -25
33 8 33 21 0 24 2 12 10 -18 12 -21 12 -42 -1z"/>
<path d="M9471 4790 c-13 -62 -13 -63 -2 -55 11 6 26 93 18 101 -3 3 -10 -18
-16 -46z"/>
<path d="M9517 4833 c-3 -5 -7 -30 -11 -58 -8 -60 8 -41 19 23 6 38 3 53 -8
35z"/>
<path d="M9737 4823 c-14 -50 -18 -95 -8 -88 6 3 11 12 11 18 0 7 14 18 30 24
34 13 39 37 11 53 -28 14 -39 13 -44 -7z m43 -18 c0 -8 -7 -15 -15 -15 -8 0
-15 7 -15 15 0 8 7 15 15 15 8 0 15 -7 15 -15z"/>
<path d="M704 4605 c0 -126 2 -177 3 -112 2 65 2 168 0 230 -1 62 -3 9 -3
-118z"/>
<path d="M1254 4605 c0 -126 2 -177 3 -112 2 65 2 168 0 230 -1 62 -3 9 -3
-118z"/>
<path d="M8636 4799 c-3 -17 -6 -41 -5 -53 l0 -21 11 22 c6 12 21 24 34 27 17
5 24 13 24 31 0 21 -5 25 -29 25 -24 0 -29 -5 -35 -31z m52 3 c2 -7 -6 -12
-17 -12 -21 0 -27 11 -14 24 9 9 26 2 31 -12z"/>
<path d="M8780 4820 c0 -5 -13 -10 -29 -10 -25 0 -30 -5 -36 -36 -7 -39 1 -59
10 -28 11 34 22 49 38 52 11 2 15 -5 14 -30 -2 -25 2 -33 18 -36 17 -2 18 -1
5 10 -19 16 -14 58 6 58 14 0 14 2 0 15 -17 17 -26 19 -26 5z"/>
<path d="M9177 4823 c-14 -14 -6 -41 14 -46 27 -7 19 -32 -10 -31 -11 0 -21
-3 -21 -8 0 -9 31 -11 54 -2 26 10 19 43 -11 55 -29 11 -22 25 17 32 22 4 21
4 -6 6 -17 0 -34 -2 -37 -6z"/>
<path d="M10214 4605 c0 -126 2 -177 3 -112 2 65 2 168 0 230 -1 62 -3 9 -3
-118z"/>
<path d="M8960 4796 c-28 -35 13 -88 44 -56 8 9 6 11 -11 6 -27 -8 -37 7 -23
34 8 15 17 19 31 15 11 -4 19 -2 19 4 0 16 -46 13 -60 -3z"/>
<path d="M9035 4795 c-12 -40 -14 -65 -5 -65 5 0 10 9 10 20 0 11 9 29 19 39
19 19 19 20 -1 18 -11 -1 -22 -6 -23 -12z"/>
<path d="M9260 4796 c-18 -23 -8 -61 18 -64 12 -2 22 1 22 6 0 5 -7 9 -16 8
-9 0 -19 4 -21 10 -5 15 26 46 38 39 5 -4 9 -1 9 4 0 16 -36 13 -50 -3z"/>
<path d="M9330 4791 c0 -9 -3 -26 -6 -38 -4 -14 -2 -23 5 -23 6 0 11 11 11 24
0 13 10 30 23 39 l22 14 -27 0 c-19 0 -28 -5 -28 -16z"/>
<path d="M9392 4798 c-32 -32 0 -84 37 -61 24 15 21 67 -4 71 -11 1 -26 -3
-33 -10z m38 -27 c0 -24 -18 -37 -31 -24 -13 13 -1 43 17 43 8 0 14 -9 14 -19z"/>
<path d="M9820 4801 c0 -5 9 -7 20 -4 11 3 20 0 20 -6 0 -6 -11 -11 -24 -11
-25 0 -39 -19 -27 -39 4 -6 18 -10 32 -8 20 3 25 10 27 40 3 34 1 37 -22 37
-14 0 -26 -4 -26 -9z m35 -41 c-3 -5 -13 -10 -21 -10 -8 0 -14 5 -14 10 0 6 9
10 21 10 11 0 17 -4 14 -10z"/>
<path d="M9894 4785 c-9 -36 -1 -50 29 -50 23 -1 28 4 33 33 4 18 4 36 0 39
-3 3 -9 -8 -12 -25 -9 -44 -43 -46 -36 -2 5 36 -5 40 -14 5z"/>
<path d="M9984 4799 c-4 -7 4 -20 17 -30 l24 -19 -27 0 c-16 0 -28 -4 -28 -10
0 -11 20 -13 44 -4 20 8 21 33 1 40 -22 9 -18 22 8 27 19 4 19 4 -5 6 -15 0
-30 -4 -34 -10z"/>
<path d="M10062 4798 c-17 -17 -15 -57 3 -64 8 -4 23 -3 33 2 14 6 12 8 -10
12 -38 5 -35 22 3 22 24 0 30 4 27 18 -4 21 -39 27 -56 10z m38 -8 c0 -5 -7
-10 -16 -10 -8 0 -12 5 -9 10 3 6 10 10 16 10 5 0 9 -4 9 -10z"/>
<path d="M1337 4743 c-3 -5 -8 -28 -12 -52 -5 -31 -4 -42 4 -37 6 4 11 14 11
22 0 8 9 14 20 14 11 0 20 5 20 10 0 6 -9 10 -20 10 -12 0 -17 5 -14 14 3 8
13 12 25 9 10 -3 19 0 19 6 0 12 -46 15 -53 4z"/>
<path d="M1415 4740 c-3 -5 0 -10 8 -10 19 0 11 -50 -11 -67 -13 -11 -11 -13
19 -13 21 0 29 3 21 8 -9 6 -11 21 -6 50 5 34 4 42 -9 42 -9 0 -19 -4 -22 -10z"/>
<path d="M1877 4743 c-3 -5 -8 -28 -12 -52 -5 -31 -4 -42 4 -37 6 4 11 14 11
22 0 8 9 14 20 14 11 0 20 5 20 10 0 6 -7 10 -15 10 -8 0 -15 5 -15 10 0 6 9
10 20 10 11 0 20 5 20 10 0 12 -47 14 -53 3z"/>
<path d="M1950 4740 c0 -7 8 -9 20 -5 32 10 25 -21 -12 -55 l-33 -29 40 0 c30
1 34 3 17 8 l-24 6 27 23 c14 13 25 31 23 40 -4 19 -58 30 -58 12z"/>
<path d="M2404 4700 c-10 -47 -2 -73 9 -30 3 12 14 20 26 20 12 0 21 5 21 10
0 6 -9 10 -21 10 -12 0 -19 5 -16 13 2 6 14 11 25 9 12 -2 22 2 22 7 0 6 -13
11 -28 11 -26 0 -29 -4 -38 -50z"/>
<path d="M2490 4739 c0 -5 5 -7 12 -3 6 4 17 -1 24 -11 16 -21 30 -14 21 10
-7 17 -57 21 -57 4z"/>
<path d="M2965 4718 c-4 -18 -9 -41 -11 -50 -3 -10 -1 -18 5 -18 6 0 11 9 11
20 0 13 7 20 19 20 11 0 23 5 26 10 3 6 -3 10 -14 10 -12 0 -21 5 -21 10 0 6
9 10 19 10 11 0 23 5 26 10 4 6 -6 10 -24 10 -25 0 -30 -5 -36 -32z"/>
<path d="M3056 4716 c-31 -41 -32 -46 -7 -46 11 0 22 -6 24 -12 9 -22 24 9 25
52 2 49 -8 50 -42 6z m15 -29 c-16 -16 -26 0 -10 19 9 11 15 12 17 4 2 -6 -1
-17 -7 -23z"/>
<path d="M3795 4704 c-7 -49 -1 -70 10 -35 3 12 15 21 26 21 10 0 19 5 19 10
0 6 -9 10 -20 10 -11 0 -20 5 -20 10 0 6 11 10 25 10 14 0 25 5 25 10 0 6 -13
10 -29 10 -26 0 -29 -4 -36 -46z"/>
<path d="M3887 4743 c-16 -15 -6 -43 14 -43 32 0 19 -34 -16 -42 -29 -6 -29
-6 5 -5 30 2 35 6 38 28 2 20 -2 28 -20 34 -23 8 -22 8 5 12 15 2 27 9 27 14
0 10 -43 12 -53 2z"/>
<path d="M4346 4742 c-3 -5 -8 -29 -11 -53 -5 -38 -4 -41 6 -21 7 12 20 22 31
22 10 0 18 5 18 10 0 6 -9 10 -21 10 -11 0 -17 5 -14 10 3 6 15 10 26 10 10 0
19 5 19 10 0 12 -47 13 -54 2z"/>
<path d="M4426 4731 c-24 -26 -18 -75 10 -79 25 -4 49 22 40 43 -3 8 -15 15
-27 15 -18 0 -20 2 -9 15 7 9 19 14 27 11 7 -3 13 -1 13 4 0 17 -36 11 -54 -9z
m32 -48 c-5 -25 -28 -28 -28 -4 0 12 6 21 16 21 9 0 14 -7 12 -17z"/>
<path d="M4887 4743 c-3 -5 -8 -28 -12 -52 -5 -31 -4 -42 4 -37 6 4 11 14 11
22 0 8 9 14 20 14 11 0 20 5 20 10 0 6 -7 10 -15 10 -8 0 -15 5 -15 10 0 6 9
10 20 10 11 0 20 5 20 10 0 12 -47 14 -53 3z"/>
<path d="M4960 4740 c0 -5 9 -10 21 -10 l21 0 -21 -36 c-12 -20 -19 -39 -16
-42 3 -3 6 -3 8 -1 18 26 57 90 57 94 0 3 -16 5 -35 5 -19 0 -35 -4 -35 -10z"/>
<path d="M5435 4725 c-3 -14 -7 -36 -10 -50 -3 -14 -1 -25 5 -25 5 0 10 9 10
20 0 13 7 20 19 20 11 0 23 5 26 10 3 6 -3 10 -14 10 -12 0 -21 5 -21 10 0 6
9 10 19 10 11 0 23 5 26 10 4 6 -6 10 -24 10 -25 0 -32 -5 -36 -25z"/>
<path d="M5520 4735 c-7 -9 -10 -18 -7 -22 4 -3 2 -12 -4 -19 -18 -22 -2 -46
28 -42 22 2 28 8 28 28 0 14 4 31 8 38 19 29 -30 45 -53 17z m40 -16 c0 -5 -7
-9 -15 -9 -15 0 -20 12 -9 23 8 8 24 -1 24 -14z m-10 -44 c0 -8 -6 -15 -14
-15 -17 0 -28 14 -19 24 12 12 33 6 33 -9z"/>
<path d="M6253 4700 c-10 -48 -1 -70 12 -30 3 11 15 20 26 20 10 0 19 5 19 10
0 6 -9 10 -20 10 -11 0 -20 5 -20 10 0 6 11 10 25 10 14 0 25 5 25 10 0 6 -13
10 -29 10 -26 0 -29 -4 -38 -50z"/>
<path d="M6340 4735 c-18 -21 -8 -50 17 -49 26 1 20 -14 -11 -26 l-21 -9 22 0
c30 -1 57 41 49 74 -7 28 -36 34 -56 10z m40 -21 c0 -8 -7 -14 -15 -14 -15 0
-21 21 -9 33 10 9 24 -2 24 -19z"/>
<path d="M6795 4704 c-7 -49 -1 -70 10 -35 3 12 15 21 26 21 10 0 19 5 19 10
0 6 -9 10 -20 10 -11 0 -20 5 -20 10 0 6 11 10 25 10 14 0 25 5 25 10 0 6 -13
10 -29 10 -26 0 -29 -4 -36 -46z"/>
<path d="M6885 4740 c-3 -5 -1 -10 6 -10 15 0 4 -61 -14 -72 -7 -4 2 -8 23 -8
23 0 31 3 21 9 -9 6 -11 20 -6 50 5 33 4 41 -9 41 -8 0 -18 -4 -21 -10z"/>
<path d="M6970 4735 c-6 -8 -13 -29 -13 -47 -2 -29 2 -33 24 -36 21 -2 29 3
38 27 23 54 -15 97 -49 56z m40 -25 c0 -29 -11 -50 -26 -50 -17 0 -19 51 -2
68 14 14 28 6 28 -18z"/>
<path d="M7346 4742 c-3 -5 -8 -28 -12 -52 -5 -31 -4 -41 4 -36 7 4 12 14 12
22 0 8 9 14 20 14 11 0 20 5 20 10 0 6 -9 10 -21 10 -11 0 -17 5 -14 10 3 6
15 10 26 10 10 0 19 5 19 10 0 12 -47 13 -54 2z"/>
<path d="M7425 4740 c-3 -5 1 -10 9 -10 12 0 13 -6 5 -32 -5 -17 -14 -35 -21
-40 -8 -5 0 -8 22 -8 22 0 30 3 22 8 -9 6 -11 21 -6 50 5 34 4 42 -9 42 -9 0
-19 -4 -22 -10z"/>
<path d="M7515 4740 c-3 -5 -1 -10 6 -10 15 0 4 -61 -14 -72 -7 -4 3 -7 23 -7
19 1 28 3 18 6 -13 3 -15 10 -7 36 5 18 9 38 9 44 0 15 -26 17 -35 3z"/>
<path d="M7896 4733 c-14 -52 -17 -83 -7 -83 6 0 11 9 11 20 0 13 7 20 20 20
11 0 20 5 20 10 0 6 -7 10 -15 10 -8 0 -15 5 -15 10 0 6 9 10 19 10 11 0 23 5
26 10 4 6 -6 10 -24 10 -20 0 -31 -6 -35 -17z"/>
<path d="M7980 4740 c0 -5 4 -10 8 -10 16 0 0 -69 -17 -73 -9 -3 0 -5 19 -6
22 0 30 2 22 7 -7 5 -11 15 -8 23 17 54 16 69 -4 69 -11 0 -20 -4 -20 -10z"/>
<path d="M8060 4739 c0 -6 7 -9 15 -6 29 12 26 -16 -6 -49 l-33 -34 40 1 c25
1 30 3 15 6 l-23 5 27 28 c17 17 25 35 22 44 -7 18 -57 22 -57 5z"/>
<path d="M2500 4701 c0 -6 7 -11 16 -11 26 0 9 -25 -22 -32 -27 -6 -27 -6 6
-5 30 2 35 5 35 27 0 16 -6 26 -17 28 -10 2 -18 -1 -18 -7z"/>
<path d="M9177 4693 c-3 -5 -8 -29 -11 -55 l-7 -48 30 0 c17 0 31 5 31 10 0 6
-9 10 -21 10 -18 0 -20 4 -13 45 6 41 2 57 -9 38z"/>
<path d="M9406 4663 c-4 -21 -9 -46 -12 -55 -3 -10 -1 -18 5 -18 6 0 11 7 11
15 0 8 4 15 9 15 5 0 11 -7 15 -15 3 -8 11 -15 17 -15 7 0 4 9 -7 21 -18 20
-18 21 6 40 28 20 20 25 -12 8 -19 -10 -20 -9 -14 15 3 14 2 26 -3 26 -5 0
-12 -17 -15 -37z"/>
<path d="M9737 4683 c-3 -10 -8 -33 -12 -50 -6 -31 -5 -33 23 -33 37 0 49 15
48 60 -1 30 -5 35 -28 38 -18 2 -28 -2 -31 -15z m46 -8 c1 -5 -6 -11 -15 -13
-11 -2 -18 3 -18 13 0 17 30 18 33 0z m-8 -46 c0 -7 -8 -15 -17 -17 -18 -3
-25 18 -11 32 10 10 28 1 28 -15z"/>
<path d="M10057 4693 c-3 -5 -8 -28 -12 -53 l-7 -44 36 38 c42 45 45 52 12 31
-23 -15 -23 -15 -19 10 5 24 -1 34 -10 18z"/>
<path d="M9824 4650 c-3 -14 -7 -31 -10 -37 -2 -7 1 -13 6 -13 4 0 11 14 15
30 4 17 13 30 21 30 8 0 14 4 14 9 0 6 -9 9 -20 8 -13 -1 -23 -10 -26 -27z"/>
<path d="M9886 4661 c-26 -29 -17 -56 19 -58 20 -1 23 0 8 4 -30 6 -29 23 0
23 31 0 38 9 26 31 -13 24 -31 24 -53 0z m37 -8 c-7 -2 -19 -2 -25 0 -7 3 -2
5 12 5 14 0 19 -2 13 -5z"/>
<path d="M9975 4671 c-3 -5 5 -12 17 -14 l23 -4 -22 -2 c-22 -1 -48 -33 -36
-45 3 -3 19 -6 34 -6 21 0 28 6 32 28 3 15 1 33 -5 40 -12 14 -34 16 -43 3z
m30 -52 c-8 -12 -35 -12 -35 0 0 11 22 20 33 14 4 -2 5 -9 2 -14z"/>
<path d="M9251 4656 c-17 -20 -10 -60 10 -64 23 -4 51 26 47 52 -4 26 -40 33
-57 12z m39 -21 c0 -18 -5 -25 -20 -25 -22 0 -26 20 -8 38 19 19 28 14 28 -13z"/>
<path d="M9332 4658 c-20 -20 -14 -56 9 -63 12 -4 26 -2 32 4 8 8 5 11 -9 11
-12 0 -24 3 -27 6 -11 12 12 42 35 47 21 4 21 4 -2 6 -15 0 -31 -4 -38 -11z"/>
<path d="M293 4590 l-10 -50 36 1 c30 2 32 3 9 6 -31 5 -31 5 -22 26 3 8 13
13 24 10 10 -3 21 0 24 6 5 7 -3 11 -19 11 -17 0 -25 5 -22 13 2 6 13 11 25 9
11 -2 23 2 27 8 4 6 -7 10 -28 10 -33 0 -35 -2 -44 -50z"/>
<path d="M10070 4622 c0 -12 19 -26 26 -19 2 2 -2 10 -11 17 -9 8 -15 8 -15 2z"/>
<path d="M393 4613 c-18 -7 -16 -32 2 -39 22 -9 18 -22 -7 -26 -19 -3 -20 -4
-6 -10 9 -4 24 0 35 8 17 13 17 15 -7 34 l-25 20 30 0 c23 0 27 3 15 10 -16
11 -19 11 -37 3z"/>
<path d="M460 4600 c-11 -11 -20 -27 -20 -35 0 -20 32 -36 51 -24 11 7 9 9 -9
9 -32 0 -27 44 6 48 12 2 20 8 17 13 -9 14 -23 11 -45 -11z"/>
<path d="M5318 4358 c-15 -15 -16 -18 -3 -18 9 0 18 7 22 15 8 23 0 24 -19 3z"/>
<path d="M7758 4358 c-15 -15 -16 -18 -3 -18 9 0 18 7 22 15 8 23 0 24 -19 3z"/>
<path d="M680 4355 c-8 -9 -8 -15 -2 -15 12 0 26 19 19 26 -2 2 -10 -2 -17
-11z"/>
<path d="M1260 4361 c0 -10 19 -25 25 -20 1 2 -3 10 -11 17 -8 7 -14 8 -14 3z"/>
<path d="M1810 4361 c0 -10 19 -25 25 -20 1 2 -3 10 -11 17 -8 7 -14 8 -14 3z"/>
<path d="M4810 4360 c0 -6 7 -13 15 -17 24 -9 27 1 5 15 -13 8 -20 8 -20 2z"/>
<path d="M7250 4362 c0 -12 19 -26 26 -19 2 2 -2 10 -11 17 -9 8 -15 8 -15 2z"/>
<path d="M8590 4361 c0 -10 19 -25 25 -20 1 2 -3 10 -11 17 -8 7 -14 8 -14 3z"/>
<path d="M10192 4354 c-7 -8 -8 -14 -3 -14 10 0 25 19 20 25 -2 1 -10 -3 -17
-11z"/>
<path d="M182 4218 c-9 -9 -12 -76 -12 -249 0 -131 3 -244 6 -253 3 -9 13 -16
22 -16 14 0 14 2 -1 13 -16 11 -17 36 -15 257 l3 245 244 3 c185 2 247 -1 259
-10 13 -11 14 -10 10 2 -4 13 -43 15 -254 18 -186 2 -253 -1 -262 -10z"/>
<path d="M727 4223 c-4 -3 -7 -11 -7 -17 0 -6 5 -5 12 2 9 9 79 12 255 12 229
0 243 -1 253 -19 6 -12 10 -109 10 -245 0 -221 0 -225 -22 -240 -12 -9 -17
-16 -11 -16 6 0 16 7 24 16 11 14 13 14 21 0 5 -9 14 -16 19 -16 6 0 3 7 -5
16 -14 13 -16 50 -16 248 0 186 3 236 14 245 9 8 86 11 257 9 l244 -3 3 -245
c2 -221 1 -246 -15 -257 -15 -11 -15 -13 -1 -13 9 0 19 7 22 16 3 9 6 122 6
253 0 171 -3 240 -12 249 -9 9 -80 12 -260 12 -214 0 -248 -2 -256 -16 -8 -14
-10 -14 -21 0 -12 14 -49 16 -261 16 -135 0 -250 -3 -253 -7z"/>
<path d="M1817 4223 c-4 -3 -7 -11 -7 -17 0 -6 4 -6 8 2 7 9 65 12 258 10
l249 -3 3 -245 c2 -221 1 -246 -15 -257 -9 -7 -12 -13 -7 -13 31 0 34 27 34
265 0 174 -3 244 -12 253 -13 13 -499 18 -511 5z"/>
<path d="M2367 4223 c-3 -5 110 -8 251 -8 l257 0 3 -245 c2 -221 1 -246 -15
-257 -9 -7 -12 -13 -7 -13 31 0 34 27 34 265 0 174 -3 244 -12 253 -14 14
-503 18 -511 5z"/>
<path d="M2913 4223 c-7 -2 -13 -12 -13 -21 1 -15 2 -15 11 1 9 15 32 17 254
17 222 0 245 -2 254 -17 6 -10 11 -13 11 -8 1 32 -25 35 -264 34 -133 0 -247
-3 -253 -6z"/>
<path d="M3452 4218 c-9 -9 -12 -77 -12 -253 0 -238 3 -265 34 -265 5 0 2 6
-7 13 -16 11 -17 36 -15 257 l3 245 249 3 c193 2 252 -1 259 -10 6 -10 8 -9 4
2 -3 13 -41 15 -253 18 -186 2 -253 -1 -262 -10z"/>
<path d="M3997 4223 c-4 -3 -7 -11 -7 -17 0 -6 4 -6 8 2 7 9 65 12 258 10
l249 -3 3 -245 c2 -221 1 -246 -15 -257 -9 -7 -12 -13 -7 -13 31 0 34 27 34
265 0 174 -3 244 -12 253 -13 13 -499 18 -511 5z"/>
<path d="M4542 4218 c-9 -9 -12 -79 -12 -253 0 -238 3 -265 34 -265 5 0 2 6
-7 13 -16 11 -17 36 -15 257 l3 245 255 0 255 0 3 -245 c2 -221 1 -246 -15
-257 -9 -7 -12 -13 -7 -13 31 0 34 27 34 265 0 174 -3 244 -12 253 -17 17
-499 17 -516 0z"/>
<path d="M5092 4218 c-9 -9 -12 -79 -12 -253 0 -238 3 -265 34 -265 5 0 2 6
-7 13 -16 11 -17 36 -15 257 l3 245 249 3 c193 2 251 -1 258 -10 4 -7 8 -117
8 -244 0 -211 2 -232 18 -247 10 -10 22 -17 27 -17 5 0 1 6 -8 13 -16 11 -17
36 -15 257 l3 245 244 3 c171 2 248 -1 257 -9 11 -9 14 -59 14 -245 0 -198 -2
-235 -16 -248 -8 -9 -11 -16 -5 -16 5 0 14 7 19 16 8 14 10 14 21 0 8 -9 18
-16 24 -16 6 0 3 6 -6 13 -16 11 -17 36 -15 257 l3 245 249 3 c193 2 252 -1
259 -10 6 -10 8 -9 4 2 -6 23 -492 28 -517 5 -16 -14 -18 -14 -23 0 -6 13 -40
15 -255 15 -214 0 -251 -2 -263 -16 -11 -14 -13 -14 -21 0 -8 14 -42 16 -256
16 -180 0 -251 -3 -260 -12z"/>
<path d="M6717 4223 c-4 -3 -7 -11 -7 -17 0 -6 4 -6 8 2 7 9 65 12 258 10
l249 -3 3 -245 c2 -221 1 -246 -15 -257 -9 -7 -12 -13 -6 -13 6 0 16 7 24 16
11 14 13 14 21 0 5 -9 14 -16 19 -16 6 0 3 7 -5 16 -14 13 -16 50 -16 248 0
185 3 236 14 245 9 8 157 10 532 9 l519 -3 3 -248 2 -248 -32 -15 -33 -15 30
6 c16 4 33 12 37 18 13 21 10 491 -4 505 -9 9 -141 12 -535 12 -463 0 -523 -2
-531 -16 -8 -14 -10 -14 -21 0 -12 14 -49 16 -261 16 -135 0 -250 -3 -253 -7z"/>
<path d="M8597 4223 c-13 -13 -7 -25 7 -14 9 8 86 11 257 9 l244 -3 3 -245 c2
-221 1 -246 -15 -257 -9 -7 -12 -13 -7 -13 31 0 34 27 34 265 0 174 -3 244
-12 253 -13 13 -499 18 -511 5z"/>
<path d="M9140 4211 c-6 -12 -10 -109 -10 -246 0 -218 6 -265 31 -265 6 0 3 7
-5 16 -14 13 -16 50 -16 247 0 128 4 237 8 243 4 7 18 14 32 17 25 4 25 4 -2
6 -18 1 -31 -6 -38 -18z"/>
<path d="M9228 4223 c6 -2 18 -2 25 0 6 3 1 5 -13 5 -14 0 -19 -2 -12 -5z"/>
<path d="M9465 4220 l190 -5 3 -245 c2 -221 1 -246 -15 -257 -9 -7 -12 -13 -7
-13 31 0 34 27 34 265 0 174 -3 244 -12 253 -9 9 -64 11 -197 10 l-186 -2 190
-6z"/>
<path d="M9692 4218 c-9 -9 -12 -78 -12 -253 0 -239 3 -266 35 -265 5 0 2 5
-7 11 -16 9 -18 32 -18 255 0 211 2 245 15 251 24 9 28 -2 17 -51 -9 -44 0
-67 11 -27 2 11 15 21 28 23 24 3 38 33 22 48 -16 15 -79 20 -91 8z m83 -29
c0 -7 -8 -15 -17 -17 -18 -3 -25 18 -11 32 10 10 28 1 28 -15z"/>
<path d="M9984 4223 c139 -3 204 -7 214 -16 12 -10 14 -9 10 3 -4 13 -37 15
-214 15 l-209 1 199 -3z"/>
<path d="M10501 4216 c-8 -9 -11 -87 -9 -262 3 -240 4 -249 23 -252 19 -4 19
-3 2 10 -16 12 -17 34 -15 258 l3 245 245 3 c221 2 246 1 258 -15 6 -9 12 -12
12 -7 0 31 -26 34 -266 34 -193 0 -244 -3 -253 -14z"/>
<path d="M11047 4223 c-13 -12 -7 -26 6 -15 6 6 26 12 42 15 28 4 28 4 -6 6
-20 0 -39 -2 -42 -6z"/>
<path d="M11345 4220 l210 -5 3 -245 c2 -221 1 -246 -15 -257 -15 -11 -15 -13
-1 -13 9 0 19 7 22 16 3 9 6 122 6 253 0 171 -3 240 -12 249 -9 9 -68 11 -217
10 l-206 -2 210 -6z"/>
<path d="M11592 4218 c-9 -9 -12 -77 -12 -253 0 -238 3 -265 34 -265 5 0 2 6
-7 13 -16 11 -17 36 -15 257 l3 245 249 3 c193 2 252 -1 259 -10 6 -10 8 -9 4
2 -3 13 -41 15 -253 18 -186 2 -253 -1 -262 -10z"/>
<path d="M12137 4223 c-4 -3 -7 -11 -7 -17 0 -6 4 -6 8 2 7 9 65 12 258 10
l249 -3 3 -245 c2 -221 1 -246 -15 -257 -9 -7 -12 -13 -7 -13 31 0 34 27 34
265 0 174 -3 244 -12 253 -13 13 -499 18 -511 5z"/>
<path d="M9196 4179 c-3 -17 -6 -41 -5 -53 0 -18 2 -17 11 7 6 16 17 27 29 27
14 0 19 -7 19 -27 1 -21 3 -24 9 -13 15 26 23 90 11 90 -5 0 -10 -9 -10 -20 0
-15 -7 -20 -26 -20 -21 0 -25 4 -21 20 3 11 2 20 -3 20 -4 0 -10 -14 -14 -31z"/>
<path d="M10536 4202 c-3 -5 -8 -29 -11 -53 -5 -33 -4 -40 4 -29 6 8 11 26 12
40 1 22 3 21 16 -12 24 -57 36 -52 48 21 5 31 4 42 -4 37 -6 -4 -11 -20 -11
-37 0 -40 -16 -37 -24 6 -7 34 -19 45 -30 27z"/>
<path d="M11084 4139 c-19 -39 -33 -74 -30 -77 8 -8 9 -6 50 76 20 39 32 72
26 72 -5 0 -26 -32 -46 -71z"/>
<path d="M2352 3964 c-2 -238 1 -264 32 -264 5 0 2 6 -7 13 -15 11 -17 41 -20
252 l-2 240 -3 -241z"/>
<path d="M7275 4176 c-17 -81 -18 -76 14 -76 36 0 48 15 47 60 -1 30 -5 35
-28 38 -22 3 -28 -1 -33 -22z m49 -7 c-7 -11 -34 -12 -34 -1 0 14 11 21 26 15
8 -3 11 -9 8 -14z m-6 -41 c-7 -19 -38 -22 -38 -4 0 10 9 16 21 16 12 0 19 -5
17 -12z"/>
<path d="M7523 4150 c-6 -27 -6 -50 -2 -50 5 0 9 7 9 17 0 15 1 15 18 0 25
-23 39 -21 18 2 -16 18 -16 20 6 35 15 11 18 16 7 16 -8 0 -21 -6 -28 -12 -11
-11 -12 -8 -7 15 3 15 2 27 -2 27 -5 0 -14 -22 -19 -50z"/>
<path d="M8657 4193 c-3 -5 -8 -30 -12 -58 -7 -61 9 -41 20 23 6 39 3 53 -8
35z"/>
<path d="M9815 4190 c-3 -6 4 -10 17 -11 21 -1 21 -1 -4 -11 -39 -14 -38 -48
1 -48 25 0 30 5 36 31 5 22 3 34 -6 40 -19 12 -36 11 -44 -1z m28 -51 c-6 -6
-17 -8 -24 -3 -9 5 -8 9 7 14 23 9 31 3 17 -11z"/>
<path d="M9896 4181 c-23 -26 -17 -53 14 -62 23 -7 11 -13 -17 -10 -7 1 -13
-3 -13 -9 0 -12 30 -13 49 -1 14 9 33 91 20 91 -4 0 -14 2 -21 5 -8 3 -22 -3
-32 -14z m44 -14 c0 -14 -20 -37 -32 -37 -10 0 -11 34 -1 43 11 12 33 8 33 -6z"/>
<path d="M9986 4184 c-27 -26 -17 -59 19 -61 18 -1 22 1 10 4 -37 9 -40 23 -6
23 28 0 32 3 29 22 -4 28 -30 34 -52 12z m44 -8 c0 -2 -9 -6 -20 -9 -11 -3
-20 -1 -20 4 0 5 9 9 20 9 11 0 20 -2 20 -4z"/>
<path d="M6704 3965 c0 -126 2 -177 3 -112 2 65 2 168 0 230 -1 62 -3 9 -3
-118z"/>
<path d="M6848 4163 c-2 -23 -7 -27 -25 -25 -13 2 -23 -2 -23 -7 0 -6 11 -11
25 -11 20 0 25 -5 25 -26 0 -15 4 -23 10 -19 6 4 8 15 5 26 -5 15 -1 19 19 19
14 0 26 5 26 11 0 5 -10 9 -22 7 -18 -2 -23 2 -23 19 0 33 -13 38 -17 6z"/>
<path d="M8990 4180 c0 -5 -13 -10 -29 -10 -24 0 -29 -5 -35 -31 -8 -42 -8
-51 3 -45 4 3 11 19 14 36 5 21 12 30 27 30 16 0 19 -5 14 -29 -7 -31 11 -50
29 -32 8 8 8 11 -1 11 -7 0 -12 11 -12 25 0 16 6 25 16 25 14 0 14 2 0 15 -17
17 -26 19 -26 5z"/>
<path d="M9302 4178 c-32 -32 0 -84 37 -61 24 15 21 67 -4 71 -11 1 -26 -3
-33 -10z m45 -14 c2 -5 -3 -19 -12 -29 -12 -17 -16 -18 -24 -6 -6 10 -6 22 0
34 10 18 30 19 36 1z"/>
<path d="M9377 4153 c-7 -40 -1 -57 8 -27 18 55 42 64 37 12 -2 -20 0 -28 7
-23 6 3 11 14 11 24 0 10 7 24 15 31 16 14 18 10 16 -35 -1 -26 0 -27 9 -12 6
10 10 28 8 40 -3 19 -10 22 -54 24 l-51 3 -6 -37z"/>
<path d="M9514 4165 c-13 -20 -14 -28 -4 -40 14 -17 46 -20 55 -5 4 6 -3 9
-16 7 -12 -1 -24 4 -26 11 -3 8 6 12 27 12 25 0 31 3 26 16 -3 9 -6 18 -6 20
0 2 -9 4 -20 4 -11 0 -27 -11 -36 -25z m41 5 c3 -5 -1 -10 -10 -10 -9 0 -13 5
-10 10 3 6 8 10 10 10 2 0 7 -4 10 -10z"/>
<path d="M10214 3965 c0 -126 2 -177 3 -112 2 65 2 168 0 230 -1 62 -3 9 -3
-118z"/>
<path d="M10740 4182 c-21 -7 -30 -23 -29 -52 1 -23 2 -23 15 8 18 41 38 42
32 2 -3 -16 -1 -30 3 -30 4 0 10 14 14 30 4 18 13 30 22 30 12 0 14 -7 10 -30
-4 -16 -3 -30 2 -30 13 0 20 53 9 67 -7 9 -16 10 -28 3 -9 -5 -21 -5 -26 -1
-5 5 -16 6 -24 3z"/>
<path d="M12124 3965 c0 -126 2 -177 3 -112 2 65 2 168 0 230 -1 62 -3 9 -3
-118z"/>
<path d="M2472 4155 c-25 -24 -29 -50 -8 -58 24 -9 8 -46 -16 -39 -14 3 -19 1
-14 -6 4 -7 14 -12 21 -12 10 0 12 -6 8 -17 -4 -12 5 -7 25 12 34 32 41 59 17
69 -17 6 -10 34 11 38 12 2 11 6 -3 18 -17 15 -21 14 -41 -5z m8 -31 c0 -8 -5
-12 -10 -9 -6 4 -8 11 -5 16 9 14 15 11 15 -7z m16 -60 c-4 -9 -9 -15 -11 -12
-3 3 -3 13 1 22 4 9 9 15 11 12 3 -3 3 -13 -1 -22z"/>
<path d="M2984 4155 c-13 -20 -14 -28 -4 -40 18 -22 39 -18 52 10 8 19 8 28
-2 40 -17 21 -27 19 -46 -10z m36 -15 c0 -11 -7 -20 -15 -20 -15 0 -21 21 -8
33 12 13 23 7 23 -13z"/>
<path d="M3042 4113 c-28 -36 -50 -69 -47 -71 3 -3 6 -3 8 -1 2 2 24 30 50 62
40 50 56 77 44 77 -1 0 -26 -30 -55 -67z"/>
<path d="M4100 4163 c-12 -8 -19 -21 -16 -28 3 -8 -2 -19 -10 -26 -8 -7 -14
-24 -12 -38 3 -24 7 -26 55 -27 29 0 50 3 47 7 -3 5 0 18 6 30 15 27 4 38 -13
14 -13 -17 -15 -16 -36 14 -24 34 -20 56 10 48 22 -6 26 8 5 16 -7 3 -24 -1
-36 -10z m15 -106 c-25 -14 -47 10 -33 36 l11 21 19 -24 c17 -21 18 -24 3 -33z"/>
<path d="M5191 4146 c-22 -35 -28 -100 -11 -126 6 -10 9 1 8 37 -1 35 5 61 20
87 27 45 11 48 -17 2z"/>
<path d="M5718 4135 c3 -33 -2 -55 -17 -81 -25 -42 -26 -51 -5 -33 36 30 55
100 38 143 -12 30 -19 16 -16 -29z"/>
<path d="M7380 4170 c-12 -8 -10 -10 10 -11 l25 -1 -27 -10 c-39 -14 -38 -48
1 -48 23 0 30 5 34 28 5 25 -7 52 -22 52 -3 0 -13 -5 -21 -10z m25 -50 c-3 -5
-13 -10 -21 -10 -8 0 -14 5 -14 10 0 6 9 10 21 10 11 0 17 -4 14 -10z"/>
<path d="M7462 4164 c-12 -8 -22 -24 -22 -34 0 -24 31 -42 51 -29 11 7 9 9 -9
9 -32 0 -27 44 6 48 12 2 20 8 17 13 -8 13 -17 11 -43 -7z"/>
<path d="M7609 4164 c-11 -14 -11 -18 4 -29 23 -16 21 -23 -5 -27 -19 -3 -20
-4 -6 -10 9 -4 24 0 35 8 17 13 17 15 1 28 -24 18 -23 26 3 26 11 0 17 5 14
10 -9 15 -31 12 -46 -6z"/>
<path d="M7693 4169 c-15 -5 -23 -17 -23 -31 0 -13 -3 -34 -6 -48 -5 -23 -4
-24 9 -7 8 9 21 17 29 17 21 0 38 21 38 46 0 26 -17 34 -47 23z m32 -19 c7
-12 -12 -40 -26 -40 -10 0 -12 34 -2 43 9 10 21 9 28 -3z"/>
<path d="M7775 4170 c-3 -6 4 -10 17 -10 20 -1 19 -3 -9 -15 -52 -22 -38 -63
15 -44 37 14 27 79 -13 79 -2 0 -7 -4 -10 -10z m20 -50 c-3 -5 -10 -10 -16
-10 -5 0 -9 5 -9 10 0 6 7 10 16 10 8 0 12 -4 9 -10z"/>
<path d="M7858 4168 c-24 -20 -29 -46 -12 -63 18 -17 30 -19 39 -5 3 6 -3 10
-14 10 -12 0 -21 4 -21 9 0 23 14 41 32 41 10 0 16 5 13 10 -8 13 -18 13 -37
-2z"/>
<path d="M7931 4164 c-11 -8 -21 -24 -21 -34 0 -24 31 -42 51 -29 11 7 9 9 -8
9 -13 0 -23 5 -23 10 0 6 11 10 25 10 18 0 25 5 25 19 0 26 -23 33 -49 15z
m39 -14 c0 -5 -9 -10 -21 -10 -11 0 -17 5 -14 10 3 6 13 10 21 10 8 0 14 -4
14 -10z"/>
<path d="M10626 4154 c-8 -32 4 -47 35 -42 17 2 25 12 30 36 8 40 -3 42 -18 2
-6 -16 -17 -30 -23 -30 -8 0 -11 11 -8 30 6 37 -7 40 -16 4z"/>
<path d="M825 4143 c-4 -16 -8 -36 -10 -45 -5 -30 14 -20 21 10 3 15 8 35 11
45 2 9 0 17 -6 17 -6 0 -13 -12 -16 -27z"/>
<path d="M1389 4155 c-57 -31 -62 -120 -8 -139 29 -10 79 -1 79 14 0 6 -10 5
-25 -2 -40 -18 -75 3 -75 45 0 42 35 77 77 77 38 0 57 -22 49 -55 -9 -35 -30
-32 -23 3 5 24 2 27 -24 29 -33 2 -64 -33 -53 -61 8 -21 77 -22 98 0 24 23 20
70 -6 88 -27 20 -55 20 -89 1z m55 -54 c3 -4 -1 -17 -9 -27 -10 -15 -16 -16
-26 -7 -6 6 -9 19 -6 27 7 17 32 22 41 7z"/>
<path d="M1930 4155 c0 -9 -10 -20 -22 -25 -18 -7 -19 -9 -5 -9 24 -1 21 -20
-5 -30 -18 -6 -19 -9 -5 -14 10 -4 14 -13 11 -22 -3 -8 -2 -15 4 -15 5 0 12 9
15 21 3 12 10 18 16 15 6 -4 8 -13 4 -21 -3 -8 -1 -15 5 -15 5 0 12 9 15 21 3
12 10 18 16 15 5 -4 12 -2 16 4 3 5 -1 10 -9 10 -24 0 -19 19 7 30 18 7 19 9
4 9 -14 1 -17 6 -12 21 3 11 2 20 -3 20 -5 0 -12 -9 -15 -20 -3 -11 -10 -20
-17 -20 -7 0 -9 8 -5 20 4 11 2 20 -4 20 -6 0 -11 -7 -11 -15z m30 -44 c0 -12
-20 -25 -27 -18 -7 7 6 27 18 27 5 0 9 -4 9 -9z"/>
<path d="M3535 4150 c-24 -26 -11 -39 15 -15 18 17 21 17 45 1 29 -19 34 -7 7
17 -25 22 -45 21 -67 -3z"/>
<path d="M4650 4160 c0 -5 -8 -7 -17 -4 -17 5 -17 5 -1 -8 15 -13 15 -15 0
-27 -16 -11 -16 -12 1 -7 11 3 17 0 17 -9 0 -8 5 -15 10 -15 6 0 10 7 10 15 0
10 6 12 18 8 14 -6 15 -4 5 8 -10 12 -10 18 0 29 10 10 9 12 -5 7 -10 -4 -18
-2 -18 3 0 6 -4 10 -10 10 -5 0 -10 -4 -10 -10z"/>
<path d="M8685 4134 c-8 -47 1 -56 13 -13 12 47 38 46 34 -1 -2 -26 0 -31 7
-20 6 8 11 27 11 43 0 23 -4 27 -29 27 -25 0 -30 -5 -36 -36z"/>
<path d="M8774 4159 c-4 -7 4 -20 17 -30 l24 -19 -28 0 c-16 0 -26 -4 -22 -10
10 -16 45 -12 52 6 4 10 -1 22 -10 29 -23 16 -21 23 6 28 19 4 19 4 -5 6 -15
0 -30 -4 -34 -10z"/>
<path d="M8852 4158 c-17 -17 -15 -57 3 -64 8 -4 23 -3 33 2 14 6 12 8 -10 12
-38 5 -35 22 3 22 24 0 30 4 27 18 -4 21 -39 27 -56 10z m38 -8 c0 -5 -7 -10
-16 -10 -8 0 -12 5 -9 10 3 6 10 10 16 10 5 0 9 -4 9 -10z"/>
<path d="M11640 4159 c0 -6 -7 -9 -15 -5 -8 3 -15 1 -15 -4 0 -6 4 -10 10 -10
5 0 12 -11 16 -25 3 -14 10 -25 14 -25 4 0 11 11 14 25 4 14 11 25 16 25 6 0
10 4 10 10 0 5 -7 7 -15 4 -8 -4 -15 -1 -15 5 0 6 -4 11 -10 11 -5 0 -10 -5
-10 -11z"/>
<path d="M12200 4160 c0 -5 11 -10 25 -10 14 0 25 5 25 10 0 6 -11 10 -25 10
-14 0 -25 -4 -25 -10z"/>
<path d="M276 4103 c-14 -14 -4 -18 42 -17 65 2 72 3 72 12 0 9 -105 13 -114
5z"/>
<path d="M3061 4096 c-20 -24 -9 -51 19 -51 21 0 25 5 25 30 0 34 -24 45 -44
21z m36 -30 c-4 -9 -11 -16 -17 -16 -11 0 -14 33 -3 44 11 10 26 -11 20 -28z"/>
<path d="M6243 4103 c15 -2 37 -2 50 0 12 2 0 4 -28 4 -27 0 -38 -2 -22 -4z"/>
<path d="M9724 4044 c-5 -34 -3 -48 7 -55 23 -14 38 -10 53 14 18 28 32 92 18
83 -5 -3 -13 -22 -16 -41 -7 -35 -26 -53 -44 -41 -6 3 -7 21 -2 41 4 19 4 37
0 40 -5 3 -12 -15 -16 -41z"/>
<path d="M10768 4054 c-4 -18 -10 -43 -14 -58 -4 -16 -2 -26 5 -26 6 0 11 7
11 17 0 14 2 14 20 -2 21 -19 29 -8 9 12 -7 7 -15 29 -18 50 l-7 38 -6 -31z"/>
<path d="M10530 4058 c0 -7 -3 -30 -6 -50 -6 -37 -6 -38 25 -38 17 0 31 4 31
9 0 6 -10 8 -21 6 -20 -4 -21 -1 -16 40 4 27 3 45 -3 45 -6 0 -10 -6 -10 -12z"/>
<path d="M805 4050 c-3 -5 1 -10 9 -10 9 0 16 5 16 10 0 6 -4 10 -9 10 -6 0
-13 -4 -16 -10z"/>
<path d="M9827 4043 c-15 -52 -18 -83 -8 -83 6 0 11 7 11 15 0 8 6 12 14 9 19
-7 48 25 44 50 -4 28 -54 36 -61 9z m47 -2 c9 -14 -4 -41 -20 -41 -8 0 -14 8
-14 18 0 29 22 43 34 23z"/>
<path d="M10605 4026 c-20 -30 -10 -56 21 -56 31 0 53 42 34 65 -18 22 -37 19
-55 -9z m43 -22 c-4 -23 -26 -30 -34 -10 -8 20 15 51 29 37 5 -5 7 -17 5 -27z"/>
<path d="M10696 4037 c-25 -18 -18 -61 12 -65 12 -2 22 1 22 6 0 5 -7 9 -16 8
-9 0 -19 4 -21 10 -6 18 25 44 44 37 11 -4 14 -3 9 5 -9 16 -28 15 -50 -1z"/>
<path d="M10800 4035 c-7 -8 -8 -15 -2 -15 5 0 15 7 22 15 7 8 8 15 2 15 -5 0
-15 -7 -22 -15z"/>
<path d="M7341 3888 l-34 -22 29 -23 c35 -28 44 -29 44 -3 0 17 8 20 73 23
l72 3 -72 2 c-63 2 -72 4 -75 22 -3 19 -4 19 -37 -2z"/>
<path d="M296 3866 c3 -9 11 -16 16 -16 13 0 5 23 -10 28 -7 2 -10 -2 -6 -12z"/>
<path d="M825 3860 c-3 -5 1 -10 10 -10 13 0 15 -6 10 -32 -11 -58 -16 -67
-33 -71 -9 -3 3 -5 28 -5 25 0 37 2 27 5 -13 3 -17 11 -14 26 20 82 20 97 -1
97 -12 0 -24 -4 -27 -10z"/>
<path d="M1354 3859 c-4 -7 4 -10 22 -7 44 5 41 -24 -8 -71 l-43 -41 50 2 c36
1 41 2 18 5 l-33 4 41 39 c35 33 39 41 29 59 -12 23 -64 30 -76 10z"/>
<path d="M1895 3859 c-4 -6 4 -9 21 -7 20 2 29 -2 32 -14 2 -13 -3 -18 -17
-18 -11 0 -23 -4 -26 -10 -3 -5 3 -10 15 -10 16 0 21 -5 18 -22 -2 -19 -9 -23
-35 -23 -18 0 -33 -3 -33 -7 0 -13 38 -18 64 -8 22 8 27 16 25 38 -1 15 2 35
6 45 12 28 -2 47 -34 47 -16 0 -33 -5 -36 -11z"/>
<path d="M2466 3826 c-20 -23 -36 -46 -36 -50 0 -3 14 -6 31 -6 23 0 30 -4 26
-15 -4 -8 -2 -17 3 -20 6 -4 10 1 10 9 0 8 8 20 18 25 11 7 12 10 3 11 -13 0
-12 16 5 73 10 32 -24 18 -60 -27z m28 -20 c-4 -17 -13 -26 -25 -26 -19 0 -19
1 2 30 26 34 33 33 23 -4z"/>
<path d="M2990 3858 c0 -7 -3 -23 -6 -35 -5 -18 -2 -21 13 -17 11 3 25 -2 32
-10 19 -23 -3 -46 -43 -46 -27 -1 -28 -2 -13 -11 23 -14 74 5 82 31 9 28 -5
50 -32 50 -33 0 -25 24 10 28 39 5 33 22 -8 22 -21 0 -35 -5 -35 -12z"/>
<path d="M3530 3850 c-24 -24 -27 -91 -5 -110 31 -26 83 19 70 60 -5 14 -15
20 -37 20 -26 0 -29 2 -18 15 7 8 23 15 36 15 13 0 24 5 24 10 0 18 -49 11
-70 -10z m46 -55 c7 -18 -12 -45 -32 -45 -14 0 -20 41 -7 53 11 12 33 7 39 -8z"/>
<path d="M4070 3861 c0 -6 14 -11 30 -13 l31 -3 -31 -48 c-29 -47 -39 -74 -21
-63 8 5 81 123 81 132 0 2 -20 4 -45 4 -25 0 -45 -4 -45 -9z"/>
<path d="M4651 3861 c-8 -5 -12 -19 -9 -34 3 -16 0 -28 -8 -31 -21 -8 -16 -44
7 -57 34 -17 71 4 68 39 -1 15 2 35 6 45 16 38 -25 63 -64 38z m49 -26 c0 -7
-7 -16 -15 -19 -20 -7 -33 23 -14 34 16 10 29 4 29 -15z m-15 -61 c0 -10 -8
-20 -18 -22 -22 -4 -35 27 -16 39 20 12 34 5 34 -17z"/>
<path d="M5181 3856 c-7 -8 -11 -27 -9 -43 2 -23 8 -28 31 -28 44 1 26 -29
-23 -37 -22 -4 -23 -5 -7 -13 43 -19 100 62 78 111 -12 27 -51 33 -70 10z m53
-39 c-10 -27 -44 -21 -44 7 0 13 6 26 13 29 18 7 39 -17 31 -36z"/>
<path d="M5715 3840 c-33 -63 -9 -124 40 -102 31 14 52 79 36 111 -18 32 -57
28 -76 -9z m61 -33 c-7 -36 -23 -57 -42 -57 -19 0 -18 60 2 88 22 32 48 11 40
-31z"/>
<path d="M6840 3820 c0 -5 25 -10 55 -10 30 0 55 5 55 10 0 6 -25 10 -55 10
-30 0 -55 -4 -55 -10z"/>
<path d="M6235 3810 c3 -5 15 -10 25 -10 10 0 22 5 25 10 4 6 -7 10 -25 10
-18 0 -29 -4 -25 -10z"/>
<path d="M6840 3780 c0 -5 25 -10 55 -10 30 0 55 5 55 10 0 6 -25 10 -55 10
-30 0 -55 -4 -55 -10z"/>
<path d="M3408 3718 c-15 -15 -16 -18 -3 -18 9 0 18 7 22 15 8 23 0 24 -19 3z"/>
<path d="M11002 3720 c-8 -13 -8 -20 -2 -20 6 0 13 7 17 15 9 24 -1 27 -15 5z"/>
<path d="M682 3714 c-7 -8 -8 -14 -3 -14 10 0 25 19 20 25 -2 1 -10 -3 -17
-11z"/>
<path d="M720 3721 c0 -10 19 -25 25 -20 1 2 -3 10 -11 17 -8 7 -14 8 -14 3z"/>
<path d="M1810 3721 c0 -10 19 -25 25 -20 1 2 -3 10 -11 17 -8 7 -14 8 -14 3z"/>
<path d="M2900 3722 c0 -12 19 -26 26 -19 2 2 -2 10 -11 17 -9 8 -15 8 -15 2z"/>
<path d="M3952 3714 c-7 -8 -8 -14 -3 -14 10 0 25 19 20 25 -2 1 -10 -3 -17
-11z"/>
<path d="M3990 3721 c0 -10 19 -25 25 -20 1 2 -3 10 -11 17 -8 7 -14 8 -14 3z"/>
<path d="M6672 3714 c-7 -8 -8 -14 -3 -14 10 0 25 19 20 25 -2 1 -10 -3 -17
-11z"/>
<path d="M6710 3721 c0 -10 19 -25 25 -20 1 2 -3 10 -11 17 -8 7 -14 8 -14 3z"/>
<path d="M8590 3721 c0 -10 19 -25 25 -20 1 2 -3 10 -11 17 -8 7 -14 8 -14 3z"/>
<path d="M10192 3714 c-7 -8 -8 -14 -3 -14 10 0 25 19 20 25 -2 1 -10 -3 -17
-11z"/>
<path d="M11040 3721 c0 -10 19 -25 25 -20 1 2 -3 10 -11 17 -8 7 -14 8 -14 3z"/>
<path d="M12092 3714 c-7 -8 -8 -14 -3 -14 10 0 25 19 20 25 -2 1 -10 -3 -17
-11z"/>
<path d="M12130 3721 c0 -10 19 -25 25 -20 1 2 -3 10 -11 17 -8 7 -14 8 -14 3z"/>
<path d="M5590 3710 c-9 -6 -10 -10 -3 -10 6 0 15 5 18 10 8 12 4 12 -15 0z"/>
<path d="M7513 3693 c15 -2 37 -2 50 0 12 2 0 4 -28 4 -27 0 -38 -2 -22 -4z"/>
<path d="M181 3666 c-8 -9 -11 -86 -9 -262 3 -240 4 -249 23 -252 19 -4 19 -3
2 10 -16 12 -17 34 -15 258 l3 245 384 3 c297 2 387 -1 399 -10 13 -11 14 -10
10 2 -7 22 -779 28 -797 6z"/>
<path d="M996 3658 c-13 -19 -16 -60 -16 -248 0 -124 -4 -230 -8 -236 -4 -6
-14 -14 -22 -17 -12 -4 -11 -6 3 -6 10 -1 20 6 24 14 5 14 7 14 24 -1 10 -9
24 -14 31 -11 9 4 7 6 -4 6 -33 2 -38 36 -38 256 0 130 4 224 10 236 10 18 24
19 260 19 138 0 251 -1 252 -2 1 -2 5 -113 8 -248 l6 -245 2 233 c1 146 -2
241 -8 253 -10 18 -24 19 -260 19 -246 0 -249 0 -264 -22z"/>
<path d="M1549 3663 c-11 -15 -11 -16 1 -5 10 9 77 12 257 12 220 0 243 -2
252 -17 6 -10 11 -13 11 -8 1 32 -26 35 -266 35 -218 0 -243 -2 -255 -17z"/>
<path d="M2092 3668 c-9 -9 -12 -77 -12 -253 0 -247 3 -266 40 -264 9 0 6 4
-8 9 l-22 9 2 248 3 248 249 3 c193 2 252 -1 259 -10 6 -10 8 -9 4 2 -3 13
-41 15 -253 18 -186 2 -253 -1 -262 -10z"/>
<path d="M2637 3673 c-13 -13 -7 -25 7 -14 9 8 86 11 257 9 l244 -3 3 -248 2
-248 -22 -9 c-23 -9 -23 -9 -2 -9 12 -1 25 6 28 15 3 9 6 122 6 253 0 171 -3
240 -12 249 -13 13 -499 18 -511 5z"/>
<path d="M3180 3661 c-6 -12 -9 -107 -8 -253 l2 -233 6 245 c3 135 7 246 8
248 1 1 116 1 255 0 l252 -3 3 -248 2 -248 -22 -9 c-14 -5 -17 -9 -7 -9 36 -2
39 17 39 264 0 174 -3 244 -12 253 -9 9 -80 12 -260 12 -234 0 -248 -1 -258
-19z"/>
<path d="M3732 3668 c-7 -7 -12 -17 -12 -22 0 -6 5 -3 11 7 9 15 32 17 254 17
222 0 245 -2 254 -17 6 -10 11 -13 11 -8 1 32 -26 35 -265 35 -174 0 -244 -3
-253 -12z"/>
<path d="M4272 3668 c-9 -9 -12 -77 -12 -253 0 -247 3 -266 40 -264 9 0 6 4
-8 9 l-22 9 2 248 3 248 249 3 c193 2 252 -1 259 -10 6 -10 8 -9 4 2 -3 13
-41 15 -253 18 -186 2 -253 -1 -262 -10z"/>
<path d="M4817 3673 c-13 -13 -7 -25 7 -14 9 8 86 11 257 9 l244 -3 3 -245 c2
-221 1 -246 -15 -257 -9 -7 -12 -13 -7 -13 31 0 34 27 34 265 0 174 -3 244
-12 253 -13 13 -499 18 -511 5z"/>
<path d="M5360 3661 c-6 -12 -10 -111 -10 -253 0 -232 4 -259 35 -258 5 0 2 5
-7 11 -16 9 -18 32 -18 247 0 130 4 243 8 250 7 9 65 12 258 10 l249 -3 3
-248 2 -248 -22 -9 c-14 -5 -17 -9 -7 -9 36 -2 39 17 39 264 0 174 -3 244 -12
253 -9 9 -80 12 -260 12 -234 0 -248 -1 -258 -19z"/>
<path d="M5912 3668 c-9 -9 -12 -78 -12 -249 0 -131 3 -244 6 -253 3 -9 16
-16 28 -15 21 0 21 0 -2 9 l-22 9 2 248 3 248 244 3 c171 2 248 -1 257 -9 11
-9 14 -59 14 -243 0 -127 -4 -236 -8 -242 -4 -6 -14 -14 -22 -17 -12 -4 -12
-6 2 -6 9 -1 21 6 26 15 8 14 10 14 21 0 8 -9 18 -16 24 -16 6 0 3 6 -6 13
-16 11 -17 36 -15 257 l3 245 244 3 c171 2 248 -1 257 -9 11 -9 14 -59 14
-243 0 -127 -4 -236 -8 -242 -4 -6 -14 -14 -22 -17 -12 -4 -12 -6 2 -6 9 -1
21 6 26 15 8 14 10 14 21 0 8 -9 21 -16 30 -15 11 0 9 3 -7 9 l-22 9 2 248 3
248 244 3 c185 2 247 -1 259 -10 13 -11 14 -10 10 2 -7 23 -493 28 -518 5 -16
-14 -18 -14 -23 0 -6 13 -40 15 -255 15 -214 0 -251 -2 -263 -16 -11 -14 -13
-14 -21 0 -8 14 -42 16 -256 16 -180 0 -251 -3 -260 -12z"/>
<path d="M7555 3672 c-6 -4 -18 -19 -28 -34 -15 -24 -17 -55 -17 -229 0 -187
1 -203 21 -230 11 -16 28 -29 37 -28 14 0 14 2 2 6 -37 13 -40 32 -40 253 0
179 3 219 16 238 l15 22 359 0 359 0 15 -22 c13 -19 16 -59 16 -236 0 -212 -6
-252 -35 -252 -7 0 -17 -4 -20 -10 -12 -20 16 -9 40 15 l25 24 0 224 c0 211
-1 224 -20 245 -21 22 -23 22 -378 22 -196 0 -362 -4 -367 -8z"/>
<path d="M8597 3673 c-13 -13 -7 -25 7 -14 9 8 86 11 257 9 l244 -3 3 -244 c2
-171 -1 -248 -9 -257 -7 -9 -8 -14 -1 -14 19 0 22 33 22 269 0 171 -3 240 -12
249 -13 13 -499 18 -511 5z"/>
<path d="M9140 3661 c-6 -12 -9 -107 -8 -253 l2 -233 6 245 c3 135 7 246 8
248 1 1 116 1 255 0 l252 -3 3 -245 c2 -221 1 -246 -15 -257 -9 -7 -12 -13 -7
-13 31 0 34 27 34 265 0 174 -3 244 -12 253 -9 9 -80 12 -260 12 -234 0 -248
-1 -258 -19z"/>
<path d="M9692 3668 c-9 -9 -12 -77 -12 -254 0 -218 2 -243 18 -255 15 -12 16
-12 4 2 -9 13 -12 75 -10 260 l3 244 244 3 c185 2 247 -1 259 -10 13 -11 14
-10 10 2 -4 13 -43 15 -254 18 -186 2 -253 -1 -262 -10z"/>
<path d="M10501 3666 c-8 -9 -11 -87 -9 -261 3 -210 5 -249 18 -253 12 -4 13
-3 2 10 -9 12 -12 74 -10 259 l3 244 245 3 c221 2 246 1 258 -15 6 -9 12 -12
12 -7 0 31 -26 34 -266 34 -193 0 -244 -3 -253 -14z"/>
<path d="M11049 3663 c-12 -16 -12 -17 2 -5 13 9 75 12 260 10 l244 -3 3 -244
c2 -185 -1 -247 -10 -259 -11 -13 -10 -14 2 -10 13 4 15 43 18 253 2 174 -1
252 -9 261 -9 11 -60 14 -254 14 -219 0 -244 -2 -256 -17z"/>
<path d="M11592 3668 c-9 -9 -12 -77 -12 -254 0 -218 2 -243 18 -255 15 -12
16 -12 4 2 -9 13 -12 75 -10 260 l3 244 244 3 c185 2 247 -1 259 -10 13 -11
14 -10 10 2 -4 13 -43 15 -254 18 -186 2 -253 -1 -262 -10z"/>
<path d="M12130 3661 c-6 -13 -10 -196 -10 -525 0 -490 1 -507 20 -523 19 -17
19 -17 0 -30 -19 -14 -20 -29 -20 -527 0 -484 1 -514 18 -529 16 -15 49 -17
251 -17 141 0 240 4 252 10 18 10 19 27 19 530 0 502 -1 519 -19 532 -20 14
-20 14 0 26 18 12 19 29 19 530 0 390 -3 521 -12 530 -9 9 -80 12 -260 12
-234 0 -248 -1 -258 -19z m518 -510 c1 -371 -1 -518 -9 -527 -16 -19 -479 -20
-497 -2 -17 17 -17 1019 0 1036 9 9 75 12 258 10 l245 -3 3 -514z m0 -1090 c1
-371 -1 -518 -9 -527 -9 -11 -60 -14 -245 -14 -198 0 -235 2 -248 16 -14 14
-16 74 -16 514 0 274 3 506 6 514 6 15 35 16 258 14 l251 -3 3 -514z"/>
<path d="M12211 3618 c-1 -23 -6 -28 -26 -28 -14 0 -25 -4 -25 -10 0 -5 11
-10 24 -10 19 0 26 -6 29 -27 l4 -28 2 28 c1 22 6 27 26 27 14 0 25 5 25 10 0
6 -11 10 -24 10 -19 0 -26 6 -29 28 l-4 27 -2 -27z"/>
<path d="M12197 2533 c-3 -5 -8 -29 -12 -55 l-7 -48 31 0 c17 0 31 5 31 10 0
6 -11 10 -25 10 -18 0 -23 4 -19 15 4 8 17 15 31 15 14 0 22 4 18 10 -4 6 -12
9 -19 8 -6 -2 -14 2 -16 7 -3 6 7 11 23 13 15 2 27 8 27 13 0 11 -57 12 -63 2z"/>
<path d="M12365 2516 c-22 -25 0 -105 22 -81 5 4 2 10 -4 12 -17 6 -16 28 0
45 11 10 11 16 3 24 -8 8 -15 8 -21 0z"/>
<path d="M12277 2503 c-6 -9 -10 -53 -8 -68 1 -5 7 5 14 24 16 47 41 55 35 12
-3 -18 -1 -34 2 -36 9 -6 22 54 14 66 -6 11 -51 12 -57 2z"/>
<path d="M12416 2489 c-11 -16 -12 -27 -5 -41 10 -19 44 -25 54 -8 4 6 -5 10
-19 10 -14 0 -26 5 -26 10 0 6 14 10 31 10 24 0 30 4 27 18 -5 26 -43 27 -62
1z m44 1 c0 -5 -7 -10 -15 -10 -8 0 -15 5 -15 10 0 6 7 10 15 10 8 0 15 -4 15
-10z"/>
<path d="M12494 2475 c-3 -20 -4 -39 0 -42 3 -3 9 8 12 26 4 20 15 36 28 41
19 8 19 9 -6 9 -23 1 -28 -4 -34 -34z"/>
<path d="M9423 3644 c-5 -10 -17 -19 -28 -19 -21 0 -46 -40 -38 -61 3 -8 18
-14 33 -14 25 0 28 4 38 53 11 54 8 74 -5 41z m-15 -60 c-4 -23 -26 -30 -34
-10 -8 20 15 51 29 37 5 -5 7 -17 5 -27z"/>
<path d="M6557 3643 c-4 -3 -7 -14 -7 -24 0 -10 -10 -27 -22 -39 -12 -11 -16
-20 -10 -20 7 0 12 -15 12 -35 0 -23 6 -38 15 -42 19 -7 34 5 18 15 -27 17
-11 113 24 140 15 11 15 12 -3 12 -12 0 -24 -3 -27 -7z"/>
<path d="M7076 3639 c18 -23 1 -127 -22 -136 -21 -8 -16 -22 5 -16 12 3 23 17
26 34 4 16 14 33 23 39 14 8 14 11 4 18 -7 5 -12 22 -10 38 2 22 -2 29 -17 32
-15 3 -17 1 -9 -9z"/>
<path d="M7580 3560 c0 -53 4 -90 10 -90 6 0 10 37 10 90 0 53 -4 90 -10 90
-6 0 -10 -37 -10 -90z"/>
<path d="M9196 3633 c-2 -10 -7 -33 -11 -50 -6 -32 -6 -33 30 -33 20 0 34 4
31 9 -3 5 -15 7 -26 4 -15 -4 -20 0 -20 16 0 16 7 21 28 22 23 2 24 2 5 6 -32
6 -29 31 5 36 26 4 25 4 -5 6 -22 1 -33 -4 -37 -16z"/>
<path d="M9715 3618 c-3 -18 -9 -41 -11 -50 -3 -10 -1 -18 4 -18 5 0 12 9 15
19 2 11 15 21 28 23 18 2 24 9 24 28 0 20 -6 26 -27 28 -23 3 -27 -1 -33 -30z
m49 13 c7 -10 -22 -37 -30 -28 -9 8 3 37 15 37 5 0 12 -4 15 -9z"/>
<path d="M2614 3415 c0 -126 2 -177 3 -112 2 65 2 168 0 230 -1 62 -3 9 -3
-118z"/>
<path d="M10214 3415 c0 -126 2 -177 3 -112 2 65 2 168 0 230 -1 62 -3 9 -3
-118z"/>
<path d="M10540 3630 c0 -5 14 -10 30 -10 17 0 30 -2 30 -5 0 -3 -13 -26 -29
-52 -29 -46 -33 -61 -12 -49 10 7 71 109 71 120 0 3 -20 6 -45 6 -25 0 -45 -4
-45 -10z"/>
<path d="M11110 3625 c-7 -8 -9 -22 -6 -31 4 -9 0 -25 -9 -34 -37 -41 29 -80
68 -41 18 18 20 24 9 41 -7 11 -8 20 -3 20 15 0 22 32 10 46 -15 18 -53 18
-69 -1z m54 -14 c8 -12 -21 -34 -34 -26 -17 11 -11 35 9 35 11 0 22 -4 25 -9z
m-15 -50 c19 -12 6 -41 -18 -41 -26 0 -36 17 -21 35 14 17 20 18 39 6z"/>
<path d="M11651 3626 c-7 -8 -11 -27 -9 -43 2 -23 8 -28 31 -28 44 1 26 -29
-23 -37 -22 -4 -23 -5 -7 -13 48 -21 105 62 78 114 -13 24 -53 28 -70 7z m53
-15 c10 -16 -5 -41 -25 -41 -19 0 -27 29 -12 43 9 10 31 9 37 -2z"/>
<path d="M364 3576 l-10 -53 27 -1 c33 -1 52 19 47 50 -2 17 -9 23 -26 22 -17
0 -21 4 -16 18 3 10 1 18 -4 18 -5 0 -13 -24 -18 -54z m46 -15 c0 -24 -18 -37
-31 -24 -13 13 -1 43 17 43 8 0 14 -9 14 -19z"/>
<path d="M8635 3605 c-3 -14 -7 -36 -10 -50 -5 -23 -2 -25 30 -25 45 0 74 38
57 75 -17 36 -69 36 -77 0z m49 9 c22 -9 20 -51 -3 -64 -35 -18 -43 -13 -36
23 11 49 13 51 39 41z"/>
<path d="M8827 3613 c-14 -49 -18 -83 -9 -83 5 0 13 21 17 46 7 46 1 71 -8 37z"/>
<path d="M8946 3614 c-3 -9 -6 -31 -6 -50 0 -26 4 -34 18 -34 12 0 14 2 4 8
-14 9 -7 41 12 55 8 6 7 10 -2 14 -6 2 -10 9 -6 14 3 5 1 9 -4 9 -6 0 -13 -7
-16 -16z"/>
<path d="M9276 3606 c-3 -12 -5 -30 -5 -41 0 -15 4 -11 15 13 8 17 21 32 29
32 11 0 13 -8 9 -32 -4 -27 -3 -30 6 -15 6 10 10 28 8 40 -4 31 -54 33 -62 3z"/>
<path d="M9805 3620 c-3 -6 4 -10 17 -11 21 -1 21 -1 -4 -11 -39 -14 -38 -48
1 -48 23 0 30 5 34 28 8 40 -29 72 -48 42z m35 -40 c0 -13 -28 -25 -38 -16 -3
4 0 11 8 16 20 13 30 12 30 0z"/>
<path d="M9886 3614 c-24 -24 -17 -59 12 -58 12 0 22 -3 22 -7 0 -10 -30 -20
-41 -13 -5 3 -9 0 -9 -5 0 -16 36 -13 50 4 15 18 31 85 20 85 -5 0 -15 3 -23
6 -8 3 -22 -2 -31 -12z m37 -10 c8 -9 -11 -44 -23 -44 -6 0 -10 11 -10 25 0
23 18 34 33 19z"/>
<path d="M9976 3617 c-28 -20 -18 -61 17 -65 15 -2 27 1 27 6 0 6 -8 8 -19 5
-10 -3 -22 0 -25 6 -5 7 4 11 23 11 24 0 31 4 31 19 0 10 -7 22 -16 25 -20 8
-17 8 -38 -7z m34 -11 c0 -2 -7 -6 -15 -10 -8 -3 -15 -1 -15 4 0 6 7 10 15 10
8 0 15 -2 15 -4z"/>
<path d="M216 3613 c19 -4 21 -8 13 -41 -11 -47 -11 -52 0 -52 5 0 12 20 15
44 6 35 12 46 29 49 12 2 0 4 -28 4 -27 0 -40 -2 -29 -4z"/>
<path d="M1097 3600 c-13 -11 -28 -31 -31 -46 -9 -32 16 -74 44 -74 11 0 20
-4 20 -10 0 -5 8 -10 17 -10 12 0 14 3 6 11 -7 7 -4 17 13 34 28 28 32 76 8
99 -21 21 -46 20 -77 -4z m71 -33 c4 -35 -22 -67 -53 -67 -31 0 -38 24 -20 66
12 30 19 35 42 32 22 -2 29 -9 31 -31z"/>
<path d="M1610 3603 c0 -47 14 -123 22 -123 5 0 19 23 32 50 l23 50 7 -50 c4
-27 11 -50 16 -50 11 0 73 131 65 138 -8 8 -12 1 -39 -59 l-25 -54 0 52 c-1
28 -6 55 -11 58 -6 4 -20 -16 -33 -44 -12 -28 -25 -51 -29 -51 -5 0 -8 23 -8
50 0 28 -4 50 -10 50 -5 0 -10 -8 -10 -17z"/>
<path d="M2167 3613 c-3 -5 -8 -28 -12 -53 -3 -25 -9 -53 -11 -62 -5 -15 2
-18 40 -18 25 0 46 5 46 10 0 6 -16 10 -35 10 -31 0 -34 2 -26 23 5 15 19 24
42 28 l34 6 -32 2 c-26 1 -33 5 -33 21 0 16 7 20 35 20 19 0 35 5 35 10 0 12
-77 14 -83 3z"/>
<path d="M2715 3593 c-4 -16 -10 -45 -14 -65 -5 -20 -6 -39 -3 -42 10 -11 22
6 22 30 0 36 35 32 49 -6 12 -35 36 -42 25 -7 -3 12 -11 28 -16 35 -7 8 -7 12
0 12 21 0 25 43 6 57 -31 23 -63 16 -69 -14z m61 -5 c7 -10 -20 -38 -38 -38
-4 0 -8 11 -8 25 0 18 5 25 19 25 11 0 23 -5 27 -12z"/>
<path d="M3235 3610 c-4 -6 5 -10 20 -10 23 0 26 -3 22 -22 -15 -63 -18 -98
-9 -98 5 0 15 27 21 60 11 54 15 60 37 60 13 0 24 5 24 10 0 6 -24 10 -54 10
-30 0 -58 -4 -61 -10z"/>
<path d="M3760 3615 c0 -4 7 -20 16 -37 10 -19 14 -44 11 -65 -7 -43 9 -43 19
0 3 17 19 47 35 66 34 41 28 58 -6 19 -29 -34 -33 -34 -45 -3 -8 21 -30 36
-30 20z"/>
<path d="M4345 3610 c-3 -5 -9 -33 -12 -61 -4 -38 -2 -53 8 -60 25 -16 58 -10
74 14 19 30 33 123 17 113 -7 -4 -12 -15 -12 -24 0 -9 -5 -34 -11 -54 -8 -32
-14 -38 -36 -38 -26 0 -26 0 -20 60 7 58 5 70 -8 50z"/>
<path d="M4905 3598 c-17 -77 -23 -113 -20 -116 11 -11 23 13 29 58 4 28 9 57
12 65 4 8 1 15 -5 15 -6 0 -13 -10 -16 -22z"/>
<path d="M5457 3600 c-51 -40 -38 -120 19 -120 56 0 97 86 58 124 -21 21 -46
20 -77 -4z m71 -33 c4 -35 -22 -67 -53 -67 -26 0 -38 23 -29 54 11 35 26 47
53 44 20 -2 27 -9 29 -31z"/>
<path d="M5977 3598 c-14 -57 -19 -123 -9 -113 5 6 12 19 14 30 2 12 13 21 28
23 71 10 64 82 -8 82 -12 0 -22 -9 -25 -22z m60 -14 c6 -16 -12 -34 -34 -34
-14 0 -18 32 -6 43 12 12 34 7 40 -9z"/>
<path d="M8746 3594 c-27 -26 -17 -59 19 -61 18 -1 22 1 10 4 -37 9 -40 23 -6
23 28 0 32 3 29 22 -4 28 -30 34 -52 12z m44 -8 c0 -2 -9 -6 -20 -9 -11 -3
-20 -1 -20 4 0 5 9 9 20 9 11 0 20 -2 20 -4z"/>
<path d="M8866 3594 c-27 -26 -17 -59 19 -61 18 -1 22 1 10 4 -37 9 -40 23 -6
23 28 0 32 3 29 22 -4 28 -30 34 -52 12z m44 -8 c0 -2 -9 -6 -20 -9 -11 -3
-20 -1 -20 4 0 5 9 9 20 9 11 0 20 -2 20 -4z"/>
<path d="M9006 3597 c-28 -20 -18 -61 17 -65 15 -2 27 1 27 6 0 6 -8 8 -19 5
-10 -3 -22 0 -25 6 -5 7 4 11 23 11 24 0 31 4 31 19 0 10 -7 22 -16 25 -20 8
-17 8 -38 -7z m34 -11 c0 -2 -7 -6 -15 -10 -8 -3 -15 -1 -15 4 0 6 7 10 15 10
8 0 15 -2 15 -4z"/>
<path d="M290 3590 c0 -5 6 -7 14 -4 8 3 17 1 21 -5 3 -6 -2 -11 -13 -11 -23
0 -46 -25 -37 -39 3 -6 17 -10 31 -9 43 4 47 78 4 78 -11 0 -20 -4 -20 -10z
m30 -39 c0 -12 -20 -25 -27 -18 -7 7 6 27 18 27 5 0 9 -4 9 -9z"/>
<path d="M9715 3478 c-4 -18 -9 -41 -11 -50 -8 -26 50 -24 76 2 37 37 20 80
-31 80 -23 0 -28 -5 -34 -32z m60 11 c4 -5 4 -21 1 -35 -5 -18 -13 -24 -32
-24 -20 0 -25 4 -20 16 3 9 6 24 6 35 0 21 34 27 45 8z"/>
<path d="M9822 3478 c-32 -32 0 -84 37 -61 24 15 21 67 -4 71 -11 1 -26 -3
-33 -10z m45 -14 c2 -5 -3 -19 -11 -29 -14 -19 -15 -19 -21 -2 -4 9 -4 24 -1
33 6 16 27 15 33 -2z"/>
<path d="M9901 3453 c-1 -49 14 -56 31 -15 l12 27 4 -27 c5 -37 15 -35 35 7
20 41 20 45 8 45 -5 0 -14 -12 -19 -27 l-10 -28 -1 28 c-1 15 -6 27 -11 27 -6
0 -16 -12 -22 -27 l-11 -28 -7 30 c-7 28 -8 27 -9 -12z"/>
<path d="M10015 3475 c-11 -37 -14 -65 -7 -65 4 0 12 14 17 32 6 17 16 34 24
36 11 4 13 -3 8 -32 -3 -20 -2 -36 2 -36 10 0 23 59 15 71 -7 12 -56 7 -59 -6z"/>
<path d="M213 3410 c0 -41 2 -60 4 -42 l4 33 35 -21 34 -22 0 21 c0 19 6 21
65 21 40 0 65 4 65 11 0 6 -23 9 -62 8 -58 -3 -63 -1 -66 19 l-3 22 -29 -20
c-37 -26 -38 -26 -43 13 -2 17 -4 -2 -4 -43z"/>
<path d="M11112 3372 c-27 -37 -27 -42 -2 -42 17 0 20 -8 23 -67 l3 -68 2 68
c2 60 4 67 22 67 26 0 25 8 -3 44 l-24 29 -21 -31z"/>
<path d="M7066 3344 c14 -6 -9 -127 -25 -132 -18 -6 -12 -22 7 -22 15 0 21 15
33 80 16 79 16 80 -5 79 -12 0 -16 -3 -10 -5z"/>
<path d="M7566 3288 c7 -67 23 -114 24 -68 0 49 -13 130 -21 130 -5 0 -6 -28
-3 -62z"/>
<path d="M420 3309 l0 -30 -29 20 c-36 26 -41 26 -41 1 0 -17 -8 -20 -72 -23
l-73 -3 73 -2 c65 -2 72 -4 72 -22 0 -25 5 -25 41 1 l29 20 0 -30 c0 -17 4
-31 9 -31 6 0 10 29 10 65 0 36 -4 65 -10 65 -5 0 -9 -14 -9 -31z"/>
<path d="M6511 3268 c-7 -35 -14 -71 -17 -80 -4 -13 0 -18 15 -18 12 0 21 5
21 10 0 6 -4 10 -9 10 -13 0 15 121 31 131 9 6 7 9 -8 9 -18 0 -23 -9 -33 -62z"/>
<path d="M2048 3168 c-15 -15 -16 -18 -3 -18 9 0 18 7 22 15 8 23 0 24 -19 3z"/>
<path d="M3720 3175 c0 -9 7 -18 15 -22 23 -8 24 0 3 20 -15 14 -18 15 -18 2z"/>
<path d="M11002 3170 c-8 -13 -8 -20 -2 -20 6 0 13 7 17 15 9 24 -1 27 -15 5z"/>
<path d="M1543 3170 c2 -8 12 -16 23 -17 13 -2 15 -1 4 4 -8 3 -19 11 -23 17
-6 7 -7 6 -4 -4z"/>
<path d="M2633 3170 c2 -8 12 -16 23 -17 13 -2 15 -1 4 4 -8 3 -19 11 -23 17
-6 7 -7 6 -4 -4z"/>
<path d="M4240 3172 c0 -6 -8 -13 -17 -15 -16 -4 -16 -5 -1 -6 18 -1 34 16 24
26 -3 4 -6 1 -6 -5z"/>
<path d="M4780 3172 c0 -6 -8 -13 -17 -15 -16 -4 -16 -5 -1 -6 18 -1 34 16 24
26 -3 4 -6 1 -6 -5z"/>
<path d="M4813 3170 c2 -8 12 -16 23 -17 13 -2 15 -1 4 4 -8 3 -19 11 -23 17
-6 7 -7 6 -4 -4z"/>
<path d="M7500 3172 c0 -9 -44 -13 -152 -14 l-153 -2 149 -3 c139 -3 183 3
163 24 -4 3 -7 1 -7 -5z"/>
<path d="M8590 3171 c0 -10 19 -25 25 -20 1 2 -3 10 -11 17 -8 7 -14 8 -14 3z"/>
<path d="M10192 3164 c-7 -8 -8 -14 -3 -14 10 0 25 19 20 25 -2 1 -10 -3 -17
-11z"/>
<path d="M11040 3171 c0 -10 19 -25 25 -20 1 2 -3 10 -11 17 -8 7 -14 8 -14 3z"/>
<path d="M12092 3164 c-7 -8 -8 -14 -3 -14 10 0 25 19 20 25 -2 1 -10 -3 -17
-11z"/>
<path d="M1495 3160 c-16 -7 -17 -9 -3 -9 9 -1 20 4 23 9 7 11 7 11 -20 0z"/>
<path d="M2585 3160 c-16 -7 -17 -9 -3 -9 9 -1 20 4 23 9 7 11 7 11 -20 0z"/>
<path d="M3187 3159 c7 -7 15 -10 18 -7 3 3 -2 9 -12 12 -14 6 -15 5 -6 -5z"/>
<path d="M9147 3159 c7 -7 15 -10 18 -7 3 3 -2 9 -12 12 -14 6 -15 5 -6 -5z"/>
<path d="M7340 3132 c-163 -3 -180 -8 -201 -57 -7 -18 -8 -18 -8 6 -1 26 -18
49 -35 49 -6 0 -3 -5 7 -11 15 -9 17 -32 17 -247 0 -130 -4 -243 -8 -250 -7
-9 -65 -12 -258 -10 l-249 3 -3 245 c-2 221 -1 246 15 258 9 6 12 12 5 12 -6
0 -18 -10 -26 -22 -13 -19 -16 -60 -16 -243 0 -183 3 -224 16 -243 15 -22 18
-22 264 -22 236 0 250 1 260 19 5 11 10 30 11 43 0 23 0 23 10 -2 5 -14 20
-33 32 -42 20 -16 65 -18 555 -18 347 0 540 4 553 10 43 23 49 58 49 264 l0
196 -29 32 -29 33 -389 0 c-213 0 -458 -1 -543 -3z m935 -18 c38 -15 45 -55
45 -254 l0 -192 -29 -29 -29 -29 -530 0 c-517 0 -530 0 -555 20 -26 21 -26 21
-29 195 l-3 175 40 2 c30 1 33 2 13 5 -20 3 -28 10 -28 24 0 14 7 19 28 20 23
2 24 2 5 6 -33 6 -29 33 5 34 l27 2 -28 4 c-15 2 -25 9 -22 14 7 10 1063 13
1090 3z m-1115 -60 c-9 -39 -20 -57 -20 -31 0 18 17 67 24 67 2 0 0 -16 -4
-36z"/>
<path d="M7336 3084 c-3 -9 -6 -31 -6 -50 0 -25 4 -34 17 -34 12 0 14 3 6 11
-11 11 -5 61 7 54 5 -3 11 -1 15 5 3 5 -1 10 -10 10 -9 0 -13 5 -10 10 3 6 2
10 -3 10 -6 0 -13 -7 -16 -16z"/>
<path d="M7244 3043 c-4 -19 -4 -37 0 -40 3 -3 9 8 12 25 6 30 13 36 31 30 4
-2 6 -16 5 -33 -2 -25 -1 -27 8 -12 20 31 8 62 -22 63 -24 1 -29 -4 -34 -33z"/>
<path d="M7391 3066 c-21 -26 -10 -61 22 -64 15 -2 27 1 27 6 0 6 -8 8 -19 5
-10 -3 -22 0 -25 6 -5 7 4 11 24 11 27 0 31 3 28 23 -4 26 -39 35 -57 13z m42
-13 c-7 -2 -19 -2 -25 0 -7 3 -2 5 12 5 14 0 19 -2 13 -5z"/>
<path d="M7470 3061 c0 -9 -3 -27 -7 -40 -4 -17 -3 -22 5 -17 7 4 12 15 12 25
0 10 10 25 23 34 l22 14 -27 0 c-19 0 -28 -5 -28 -16z"/>
<path d="M7362 2718 l3 -33 -62 -3 c-50 -2 -63 0 -63 12 0 12 -6 12 -35 3 -19
-6 -35 -14 -35 -18 0 -12 63 -30 70 -20 3 6 35 11 70 13 l65 3 3 38 c2 23 -1
37 -8 37 -7 0 -10 -13 -8 -32z"/>
<path d="M10643 3133 c65 -2 168 -2 230 0 62 1 9 3 -118 3 -126 0 -177 -2
-112 -3z"/>
<path d="M11183 3133 c64 -2 170 -2 235 0 64 1 11 3 -118 3 -129 0 -182 -2
-117 -3z"/>
<path d="M11733 3133 c64 -2 170 -2 235 0 64 1 11 3 -118 3 -129 0 -182 -2
-117 -3z"/>
<path d="M177 3123 c-4 -3 -7 -118 -7 -253 0 -197 3 -250 14 -259 9 -8 143
-10 476 -9 401 3 464 5 468 18 4 12 3 13 -10 2 -12 -9 -117 -12 -474 -10
l-459 3 -3 252 c-2 233 -1 252 15 256 14 4 15 5 2 6 -9 0 -19 -2 -22 -6z"/>
<path d="M1112 3116 c7 -8 15 -12 17 -11 5 6 -10 25 -20 25 -5 0 -4 -6 3 -14z"/>
<path d="M1157 3123 c-13 -12 -8 -498 5 -511 9 -9 79 -12 253 -12 238 0 265 3
265 34 0 5 -6 2 -12 -7 -12 -16 -37 -17 -258 -15 l-245 3 -3 244 c-2 171 1
248 9 257 11 14 -1 20 -14 7z"/>
<path d="M1662 3116 c7 -8 15 -12 17 -11 5 6 -10 25 -20 25 -5 0 -4 -6 3 -14z"/>
<path d="M1700 3111 c-6 -12 -9 -105 -8 -248 l2 -228 6 238 c4 196 8 239 20
247 9 6 10 10 3 10 -7 0 -17 -9 -23 -19z"/>
<path d="M2203 3118 c16 -12 17 -37 15 -258 l-3 -245 -244 -3 c-171 -2 -248 1
-257 9 -9 7 -14 8 -14 1 0 -19 33 -22 269 -22 171 0 240 3 249 12 9 9 12 78
12 249 0 131 -3 244 -6 253 -3 9 -13 16 -22 16 -14 0 -14 -2 1 -12z"/>
<path d="M2246 3114 c-3 -9 -6 -123 -6 -254 0 -189 3 -240 14 -249 9 -8 87
-11 261 -9 210 3 249 5 253 18 4 12 3 13 -10 2 -12 -9 -74 -12 -259 -10 l-244
3 -3 245 c-2 221 -1 246 15 258 15 10 15 12 1 12 -9 0 -19 -7 -22 -16z"/>
<path d="M2752 3116 c7 -8 15 -12 17 -11 5 6 -10 25 -20 25 -5 0 -4 -6 3 -14z"/>
<path d="M2795 3119 c-11 -16 -1 -19 13 -3 7 8 8 14 3 14 -5 0 -13 -5 -16 -11z"/>
<path d="M3293 3118 c16 -12 17 -37 15 -258 l-3 -245 -244 -3 c-185 -2 -247 1
-259 10 -13 11 -14 10 -10 -2 4 -13 43 -15 253 -18 174 -2 252 1 261 9 11 9
14 60 14 253 0 240 -3 266 -34 266 -5 0 -2 -6 7 -12z"/>
<path d="M3342 3118 c-17 -17 -17 -489 0 -506 17 -17 499 -17 516 0 9 9 12 79
12 253 0 238 -3 265 -34 265 -5 0 -2 -6 7 -12 16 -12 17 -37 15 -258 l-3 -245
-255 0 -255 0 -3 245 c-2 221 -1 246 15 258 9 6 12 12 7 12 -6 0 -15 -5 -22
-12z"/>
<path d="M3885 3119 c-11 -16 -1 -19 13 -3 7 8 8 14 3 14 -5 0 -13 -5 -16 -11z"/>
<path d="M4390 3115 c7 -9 15 -13 17 -11 7 7 -7 26 -19 26 -6 0 -6 -6 2 -15z"/>
<path d="M4426 3114 c-3 -9 -6 -122 -6 -253 0 -171 3 -240 12 -249 9 -9 79
-12 253 -12 222 0 244 2 263 19 21 18 22 25 22 254 0 214 2 237 18 246 9 6 12
11 6 11 -6 0 -17 -7 -25 -16 -11 -14 -13 -14 -21 0 -5 9 -14 16 -19 16 -6 0
-3 -7 5 -16 14 -13 16 -50 16 -248 0 -186 -3 -236 -14 -245 -9 -8 -86 -11
-257 -9 l-244 3 -3 245 c-2 221 -1 246 15 258 15 10 15 12 1 12 -9 0 -19 -7
-22 -16z"/>
<path d="M5460 3126 c0 -2 7 -7 16 -10 8 -3 12 -2 9 4 -6 10 -25 14 -25 6z"/>
<path d="M5515 3119 c-11 -16 -1 -19 13 -3 7 8 8 14 3 14 -5 0 -13 -5 -16 -11z"/>
<path d="M6013 3118 c16 -12 17 -37 15 -258 l-3 -245 -244 -3 c-171 -2 -248 1
-257 9 -9 7 -14 8 -14 1 0 -19 33 -22 269 -22 171 0 240 3 249 12 9 9 12 78
12 249 0 131 -3 244 -6 253 -3 9 -13 16 -22 16 -14 0 -14 -2 1 -12z"/>
<path d="M6057 3123 c-13 -12 -8 -498 5 -511 9 -9 78 -12 249 -12 236 0 269 3
269 22 0 7 -5 6 -14 -1 -9 -8 -86 -11 -257 -9 l-244 3 -3 244 c-2 171 1 248 9
257 11 14 -1 20 -14 7z"/>
<path d="M6562 3116 c7 -8 15 -12 17 -11 5 6 -10 25 -20 25 -5 0 -4 -6 3 -14z"/>
<path d="M10497 3123 c-10 -9 -9 -501 1 -506 4 -3 7 111 7 254 0 142 0 259 -1
259 0 0 -4 -3 -7 -7z"/>
<path d="M11006 3117 c3 -10 9 -15 12 -12 3 3 0 11 -7 18 -10 9 -11 8 -5 -6z"/>
<path d="M11045 3119 c-4 -6 -5 -12 -2 -15 2 -3 7 2 10 11 7 17 1 20 -8 4z"/>
<path d="M11558 2878 c2 -196 0 -253 -10 -260 -10 -7 -9 -9 2 -5 13 3 15 41
18 252 1 137 -1 252 -5 256 -5 5 -7 -105 -5 -243z"/>
<path d="M11585 3117 c-3 -7 -4 -122 -3 -256 2 -188 6 -245 16 -247 7 -1 8 0
2 3 -16 8 -14 500 3 506 9 4 9 6 -1 6 -7 1 -15 -5 -17 -12z"/>
<path d="M10576 3056 c-43 -52 -45 -66 -11 -66 16 0 25 -6 25 -15 0 -8 5 -15
10 -15 6 0 10 5 10 11 0 7 8 18 18 25 10 8 12 13 5 14 -9 0 -11 13 -6 45 7 57
-4 57 -51 1z m28 -20 c-4 -17 -13 -26 -25 -26 -19 0 -19 1 2 30 26 34 33 33
23 -4z"/>
<path d="M11143 3092 c-20 -2 -33 -9 -33 -17 0 -7 -3 -20 -6 -29 -5 -12 0 -16
20 -16 29 0 45 -25 28 -42 -6 -6 -25 -11 -42 -10 -17 0 -28 -4 -25 -9 10 -16
61 -10 78 9 29 32 15 72 -25 72 -31 0 -8 29 25 32 18 2 28 5 22 8 -5 3 -25 4
-42 2z"/>
<path d="M11672 3093 c-17 -7 -42 -57 -42 -86 0 -53 73 -63 86 -12 9 35 -12
58 -45 50 -25 -6 -25 -6 -7 14 11 12 30 21 43 21 14 0 21 4 18 10 -6 10 -31
12 -53 3z m28 -83 c0 -26 -38 -47 -46 -25 -9 23 3 45 26 45 13 0 20 -7 20 -20z"/>
<path d="M225 3065 c-27 -26 -32 -54 -13 -73 15 -15 55 -16 64 -1 3 6 -1 10
-12 9 -36 -4 -44 0 -44 24 0 30 24 50 50 43 24 -6 27 8 4 17 -22 9 -22 9 -49
-19z"/>
<path d="M2778 2865 c-2 -124 0 -225 5 -225 4 0 7 101 7 225 0 124 -2 225 -5
225 -2 0 -6 -101 -7 -225z"/>
<path d="M5494 2865 c0 -126 2 -177 3 -112 2 65 2 168 0 230 -1 62 -3 9 -3
-118z"/>
<path d="M6632 3065 c0 -16 2 -22 5 -12 2 9 2 23 0 30 -3 6 -5 -1 -5 -18z"/>
<path d="M6660 3065 c0 -14 5 -25 10 -25 6 0 10 11 10 25 0 14 -4 25 -10 25
-5 0 -10 -11 -10 -25z"/>
<path d="M1828 3068 c-40 -14 -39 -55 2 -69 17 -6 30 -14 30 -19 0 -17 -29
-31 -54 -24 -16 4 -26 2 -26 -5 0 -15 73 -14 88 1 22 22 14 49 -18 61 -41 16
-36 43 8 41 18 -1 32 2 32 6 0 13 -34 17 -62 8z"/>
<path d="M3473 3069 c-44 -16 -69 -89 -41 -117 13 -13 84 -17 91 -4 2 4 7 19
11 35 6 24 4 27 -19 27 -14 0 -25 -4 -25 -10 0 -5 7 -10 15 -10 20 0 8 -28
-16 -35 -46 -15 -66 48 -28 86 16 16 29 20 50 15 16 -3 29 -2 29 3 0 13 -43
19 -67 10z"/>
<path d="M1267 3008 c-33 -59 -41 -94 -13 -55 17 22 76 24 76 2 0 -8 5 -15 10
-15 13 0 13 4 -1 73 -7 34 -17 57 -24 57 -7 0 -29 -28 -48 -62z m53 7 c0 -18
-5 -25 -20 -25 -17 0 -18 3 -8 25 6 14 15 25 20 25 4 0 8 -11 8 -25z"/>
<path d="M2341 3020 c-16 -76 -15 -80 23 -80 47 0 86 33 86 74 0 42 -16 56
-61 56 -37 0 -38 -1 -48 -50z m70 30 c22 -12 26 -59 7 -78 -7 -7 -25 -12 -41
-12 -27 0 -28 2 -22 33 15 73 18 77 56 57z"/>
<path d="M2891 3013 c-13 -68 -13 -73 -2 -73 5 0 11 14 15 30 4 24 11 30 31
30 14 0 25 5 25 10 0 6 -11 10 -24 10 -38 0 -23 38 18 43 27 3 25 4 -10 5
l-41 2 -12 -57z"/>
<path d="M3951 3013 c-13 -68 -13 -73 -2 -73 5 0 11 14 15 30 5 26 10 30 37
30 30 0 31 -2 26 -30 -4 -17 -2 -30 3 -30 5 0 12 12 15 28 4 15 10 44 15 65 6
29 5 37 -6 37 -8 0 -14 -10 -14 -25 0 -22 -4 -25 -34 -25 -30 0 -33 2 -28 25
2 14 0 25 -5 25 -6 0 -15 -26 -22 -57z"/>
<path d="M4526 3053 c-3 -10 -8 -36 -11 -58 -10 -63 -15 -75 -31 -75 -8 0 -14
-4 -14 -10 0 -13 6 -13 30 0 12 6 23 30 30 67 6 32 14 66 16 76 3 9 1 17 -5
17 -5 0 -12 -8 -15 -17z"/>
<path d="M5051 3013 c-13 -68 -13 -73 -2 -73 5 0 11 14 15 31 l6 31 26 -31
c36 -43 51 -39 18 4 -15 20 -25 37 -23 38 2 2 19 15 37 30 43 34 20 36 -25 1
l-34 -26 7 26 c3 15 2 26 -4 26 -5 0 -14 -26 -21 -57z"/>
<path d="M5611 3013 c-15 -76 -16 -73 29 -73 22 0 40 5 40 10 0 6 -14 10 -31
10 -24 0 -29 4 -25 18 3 9 8 34 12 55 10 61 -12 43 -25 -20z"/>
<path d="M310 3051 c0 -5 9 -7 20 -4 11 3 20 1 20 -5 0 -6 -10 -12 -22 -14
-35 -5 -31 -43 4 -44 22 -1 28 4 33 27 4 16 4 33 0 39 -8 12 -55 13 -55 1z
m40 -40 c0 -12 -28 -22 -34 -12 -3 5 -3 11 1 15 9 9 33 7 33 -3z"/>
<path d="M385 3009 c-4 -27 -4 -53 -1 -56 3 -4 6 3 6 14 0 16 5 20 19 16 13
-3 25 3 35 20 22 32 11 57 -24 57 -26 0 -29 -4 -35 -51z m55 17 c0 -8 -7 -19
-15 -26 -12 -10 -16 -9 -21 4 -7 18 13 49 27 40 5 -3 9 -11 9 -18z"/>
<path d="M481 3046 c-10 -11 -8 -17 9 -29 24 -16 12 -31 -16 -20 -12 4 -15 3
-10 -5 10 -16 41 -15 56 2 9 12 7 17 -9 28 -27 16 -27 32 -1 25 11 -3 20 -1
20 4 0 14 -36 11 -49 -5z"/>
<path d="M6140 3025 c0 -8 5 -15 10 -15 6 0 10 7 10 15 0 8 -4 15 -10 15 -5 0
-10 -7 -10 -15z"/>
<path d="M6130 2954 c0 -8 5 -12 10 -9 6 3 10 10 10 16 0 5 -4 9 -10 9 -5 0
-10 -7 -10 -16z"/>
<path d="M215 2925 c-3 -14 -7 -36 -10 -50 -5 -23 -3 -25 32 -24 31 2 33 3 10
6 -27 4 -28 6 -21 49 7 46 -2 62 -11 19z"/>
<path d="M445 2904 c-3 -25 -4 -48 -1 -52 3 -3 6 3 6 13 0 17 1 17 18 2 26
-23 39 -21 18 2 -17 19 -17 20 3 33 12 7 21 16 21 21 0 4 -12 0 -26 -9 -25
-17 -25 -17 -18 9 3 16 2 27 -4 27 -5 0 -13 -21 -17 -46z"/>
<path d="M296 2911 c-24 -26 -17 -56 13 -56 31 0 50 29 35 52 -15 25 -28 26
-48 4z m38 -10 c3 -4 -1 -17 -9 -27 -16 -23 -40 -7 -29 19 7 18 29 23 38 8z"/>
<path d="M379 2909 c-28 -28 -21 -54 16 -56 21 -1 23 0 7 4 -31 6 -27 47 6 51
12 2 20 8 17 13 -9 14 -23 11 -46 -12z"/>
<path d="M6140 2784 c0 -8 5 -12 10 -9 6 3 10 10 10 16 0 5 -4 9 -10 9 -5 0
-10 -7 -10 -16z"/>
<path d="M6650 2745 c0 -14 5 -25 10 -25 6 0 10 11 10 25 0 14 -4 25 -10 25
-5 0 -10 -11 -10 -25z"/>
<path d="M10573 2722 l-33 -27 35 -23 c34 -22 35 -22 35 -2 0 18 7 20 71 20
47 0 68 3 64 11 -4 6 -33 9 -68 8 -55 -2 -62 -1 -67 19 -5 20 -5 20 -37 -6z"/>
<path d="M11734 2725 c4 -12 -6 -15 -64 -15 -40 0 -70 -4 -70 -10 0 -6 30 -10
69 -10 64 0 69 -1 64 -20 -7 -26 0 -25 43 4 l35 24 -29 21 c-35 25 -57 27 -48
6z"/>
<path d="M6121 2712 c-7 -13 -11 -26 -8 -28 8 -8 29 25 25 38 -3 8 -9 4 -17
-10z"/>
<path d="M3880 2635 c-1 -32 26 -35 265 -35 239 0 266 3 265 35 0 5 -5 2 -11
-7 -9 -16 -32 -18 -254 -18 -222 0 -245 2 -254 18 -6 9 -11 12 -11 7z"/>
<path d="M11006 2623 c-6 -14 -5 -15 5 -6 7 7 10 15 7 18 -3 3 -9 -2 -12 -12z"/>
<path d="M11040 2631 c0 -6 4 -13 10 -16 6 -3 7 1 4 9 -7 18 -14 21 -14 7z"/>
<path d="M5480 2621 c0 -9 -62 -11 -254 -9 -140 2 -252 0 -249 -4 7 -13 501
-10 508 3 4 6 4 13 1 16 -3 4 -6 1 -6 -6z"/>
<path d="M197 2570 l-27 -21 0 -229 0 -229 26 -20 c26 -21 35 -21 601 -21
l574 0 24 25 25 24 0 219 c0 201 -2 222 -19 243 l-19 24 -579 3 c-575 2 -580
2 -606 -18z m1188 -15 c25 -24 25 -24 25 -235 l0 -211 -25 -25 -25 -24 -576 2
c-557 3 -576 4 -590 22 -11 16 -14 65 -14 238 0 205 1 219 20 238 20 20 33 20
590 20 l571 0 24 -25z"/>
<path d="M220 2545 c-15 -18 -6 -45 15 -45 8 0 15 -7 15 -15 0 -9 -9 -15 -25
-15 -14 0 -25 -4 -25 -10 0 -14 43 -13 58 2 19 19 14 37 -13 50 -29 13 -24 28
11 28 14 0 22 4 19 10 -9 15 -41 12 -55 -5z"/>
<path d="M307 2553 c-4 -6 -9 -33 -12 -60 l-5 -48 13 35 c8 19 20 35 28 35 10
0 13 -10 12 -35 -2 -28 -1 -31 6 -15 16 33 12 57 -8 62 -11 3 -21 12 -23 22
-2 11 -6 12 -11 4z"/>
<path d="M390 2549 c0 -5 5 -7 10 -4 6 3 10 8 10 11 0 2 -4 4 -10 4 -5 0 -10
-5 -10 -11z"/>
<path d="M430 2540 c-6 -11 -9 -20 -6 -20 3 0 1 -13 -4 -30 -5 -16 -5 -32 0
-35 4 -3 11 11 14 30 4 22 13 35 22 35 12 0 14 -7 9 -29 -4 -21 -2 -30 11 -35
9 -4 20 -3 23 0 3 4 0 9 -6 11 -17 6 -16 40 1 50 12 7 12 10 0 20 -8 8 -15 9
-19 3 -3 -6 -14 -10 -23 -10 -15 1 -15 2 2 15 17 13 17 15 3 15 -9 0 -21 -9
-27 -20z"/>
<path d="M386 2519 c-12 -39 -15 -69 -7 -69 4 0 11 17 14 37 6 37 1 58 -7 32z"/>
<path d="M248 2317 c-22 -33 -24 -43 -13 -45 11 -2 15 -17 15 -48 0 -44 0 -44
35 -44 35 0 35 0 35 45 0 34 4 45 16 45 11 0 7 11 -17 45 -18 25 -35 45 -38
45 -3 0 -18 -19 -33 -43z m60 -7 l23 -30 -46 0 -46 0 18 30 c9 17 20 30 23 30
4 0 16 -13 28 -30z m-8 -80 c0 -33 -3 -40 -20 -40 -17 0 -20 7 -20 40 0 33 3
40 20 40 17 0 20 -7 20 -40z"/>
<path d="M1448 2579 c-16 -9 -18 -32 -18 -259 0 -236 1 -250 19 -260 12 -6
112 -10 254 -10 212 0 236 2 248 18 11 14 11 15 -1 5 -10 -10 -75 -13 -246
-13 -128 0 -239 3 -248 6 -14 5 -16 37 -16 254 0 217 2 249 16 254 9 3 120 6
248 6 171 0 236 -3 246 -12 12 -11 12 -10 1 5 -12 15 -36 17 -250 17 -142 0
-243 -5 -253 -11z"/>
<path d="M1980 2568 c-19 -21 -20 -34 -20 -248 0 -214 1 -227 20 -248 20 -21
27 -22 259 -22 218 0 239 2 254 18 15 16 17 49 17 254 0 215 -2 236 -18 251
-16 15 -49 17 -255 17 -230 0 -237 -1 -257 -22z m508 0 c17 -17 17 -479 0
-496 -9 -9 -77 -12 -247 -12 -204 0 -237 2 -253 17 -16 15 -18 36 -18 241 0
196 2 228 17 244 15 16 36 18 253 18 170 0 239 -3 248 -12z"/>
<path d="M2065 2513 c18 -44 17 -55 -10 -83 -16 -17 -26 -32 -23 -36 4 -3 19
8 34 26 l28 31 13 -26 c8 -14 18 -25 24 -25 5 0 2 14 -6 30 -17 32 -15 41 18
78 11 12 16 22 10 22 -5 0 -18 -9 -28 -20 -10 -11 -22 -20 -26 -20 -4 0 -11 9
-14 20 -3 11 -11 20 -17 20 -6 0 -7 -7 -3 -17z"/>
<path d="M2785 2583 c211 -3 241 -5 253 -20 6 -9 12 -12 12 -7 0 31 -26 34
-264 32 l-241 -3 240 -2z"/>
<path d="M3082 2578 c-17 -17 -17 -499 0 -516 9 -9 79 -12 253 -12 238 0 265
3 265 34 0 5 -6 2 -12 -7 -12 -16 -37 -17 -258 -15 l-245 3 0 255 0 255 245 3
c221 2 246 1 258 -15 6 -9 12 -12 12 -7 0 31 -27 34 -265 34 -174 0 -244 -3
-253 -12z"/>
<path d="M3626 2574 c-14 -13 -16 -50 -16 -254 0 -204 2 -241 16 -254 13 -14
50 -16 252 -16 130 0 242 4 248 8 29 19 34 55 34 262 0 207 -5 243 -34 262 -6
4 -118 8 -248 8 -202 0 -239 -2 -252 -16z m502 -6 c17 -17 17 -479 0 -496 -17
-17 -479 -17 -496 0 -17 17 -17 479 0 496 17 17 479 17 496 0z"/>
<path d="M3671 2480 c-17 -78 -16 -80 28 -80 44 0 66 19 58 52 -4 13 -2 30 3
38 13 22 -7 40 -45 40 -32 0 -34 -2 -44 -50z m72 15 c-3 -13 -53 -20 -53 -7 0
15 13 23 35 20 11 -2 19 -7 18 -13z m-8 -45 c9 -15 -14 -40 -36 -40 -19 0 -27
29 -12 43 10 11 41 8 48 -3z"/>
<path d="M4169 2573 c-12 -16 -12 -17 2 -6 11 9 84 13 255 16 l239 2 -241 3
c-220 2 -243 0 -255 -15z"/>
<path d="M4712 2578 c-17 -17 -17 -499 0 -516 9 -9 79 -12 253 -12 238 0 265
3 265 34 0 5 -6 2 -12 -7 -12 -16 -37 -17 -258 -15 l-245 3 0 255 0 255 245 3
c221 2 246 1 258 -15 6 -9 12 -12 12 -7 0 31 -27 34 -265 34 -174 0 -244 -3
-253 -12z"/>
<path d="M5263 2583 c-7 -2 -13 -10 -13 -16 0 -8 4 -7 12 1 17 17 479 17 496
0 17 -17 17 -479 0 -496 -17 -17 -479 -17 -496 0 -8 8 -12 8 -12 1 0 -20 31
-23 265 -23 199 0 236 2 249 16 24 23 24 485 0 508 -13 14 -50 16 -252 15
-130 0 -243 -3 -249 -6z"/>
<path d="M6055 2583 c211 -3 241 -5 253 -20 9 -12 12 -78 12 -243 0 -165 -3
-231 -12 -243 -12 -15 -42 -17 -253 -20 l-240 -2 242 -3 c230 -2 243 -1 256
18 13 19 13 19 30 0 16 -19 31 -20 257 -20 304 0 280 -17 280 203 0 143 2 159
16 153 23 -9 65 20 58 39 -3 8 -14 17 -25 20 -27 9 -23 25 6 25 14 0 25 5 25
10 0 14 -43 13 -58 -2 -19 -19 -14 -34 14 -46 30 -14 23 -32 -12 -32 -23 0
-24 3 -24 63 0 50 -4 68 -20 85 -20 21 -27 22 -260 22 -226 0 -241 -1 -257
-20 -17 -19 -17 -19 -30 0 -13 19 -26 20 -256 18 l-242 -3 240 -2z m793 -15
c17 -17 17 -479 0 -496 -17 -17 -479 -17 -496 0 -9 9 -12 78 -12 248 0 170 3
239 12 248 17 17 479 17 496 0z"/>
<path d="M6424 2549 c-4 -7 0 -9 14 -5 30 10 37 -12 12 -39 -12 -13 -21 -28
-19 -34 2 -6 17 5 32 25 16 19 26 42 23 50 -6 17 -52 19 -62 3z"/>
<path d="M6420 2440 c0 -5 5 -10 10 -10 6 0 10 5 10 10 0 6 -4 10 -10 10 -5 0
-10 -4 -10 -10z"/>
<path d="M6410 2180 c-18 -38 -31 -72 -27 -76 3 -3 22 26 41 65 39 75 40 81
28 81 -5 0 -23 -31 -42 -70z"/>
<path d="M6893 2583 c-7 -2 -13 -10 -13 -16 0 -8 4 -7 12 1 18 18 1408 17
1428 0 12 -11 12 -10 1 5 -13 16 -58 17 -715 16 -385 0 -707 -3 -713 -6z"/>
<path d="M9147 2572 c-15 -16 -17 -49 -17 -254 0 -215 2 -236 18 -251 16 -15
49 -17 251 -17 141 0 240 4 252 10 18 10 19 24 19 260 0 236 -1 250 -19 260
-12 6 -112 10 -254 10 -214 0 -235 -2 -250 -18z m501 -4 c17 -17 17 -479 0
-496 -17 -17 -479 -17 -496 0 -9 9 -12 78 -12 248 0 170 3 239 12 248 17 17
479 17 496 0z"/>
<path d="M9372 2385 c-22 -34 -22 -35 -2 -35 18 0 20 -7 20 -64 0 -36 5 -68
10 -71 6 -4 10 20 10 64 0 65 2 71 21 71 l21 0 -21 32 c-11 18 -24 34 -28 35
-4 2 -18 -13 -31 -32z"/>
<path d="M10497 2583 c-9 -8 -9 -486 -1 -507 3 -9 13 -16 22 -16 13 0 11 -4
-6 -16 -22 -15 -22 -18 -22 -264 0 -236 1 -250 19 -260 13 -6 196 -10 525 -10
445 0 506 2 520 16 14 13 16 51 16 259 0 230 -1 245 -19 257 -20 14 -20 14 0
26 18 11 19 26 19 255 0 242 -3 268 -35 267 -5 0 -2 -5 8 -11 15 -9 17 -32 17
-254 0 -231 -1 -245 -19 -255 -12 -6 -107 -10 -238 -10 -182 0 -222 3 -241 16
-12 8 -22 11 -22 6 0 -5 10 -14 23 -20 19 -9 14 -11 -33 -11 -47 0 -52 2 -32
11 12 6 22 17 22 25 0 9 -6 7 -20 -7 -19 -19 -33 -20 -241 -20 -133 0 -228 4
-240 10 -18 10 -19 24 -19 255 0 222 2 245 18 254 14 9 15 10 1 11 -9 0 -19
-3 -22 -7z m1051 -555 c9 -9 12 -78 12 -250 0 -224 -1 -238 -19 -248 -30 -15
-1013 -14 -1029 2 -13 13 -18 489 -5 501 3 4 236 7 518 7 384 0 514 -3 523
-12z"/>
<path d="M10561 2013 c-43 -36 -37 -123 9 -123 43 0 77 91 45 123 -21 21 -28
21 -54 0z m47 -29 c5 -34 -15 -74 -38 -74 -23 0 -27 31 -10 75 12 31 43 31 48
-1z"/>
<path d="M10557 1673 c-11 -18 -19 -98 -9 -88 11 11 27 95 18 95 -2 0 -7 -3
-9 -7z"/>
<path d="M10587 1623 c-7 -40 -1 -58 8 -27 18 55 42 64 37 12 -2 -20 0 -28 7
-23 6 3 11 22 11 41 0 31 -3 34 -29 34 -25 0 -29 -4 -34 -37z"/>
<path d="M10676 1645 c-3 -8 4 -21 15 -29 23 -16 11 -30 -17 -19 -12 4 -15 3
-10 -5 10 -16 41 -15 56 2 9 12 7 17 -9 28 -27 16 -27 32 -1 25 11 -3 20 -1
20 4 0 15 -47 10 -54 -6z"/>
<path d="M11002 2570 c14 -22 24 -19 15 5 -4 8 -11 15 -17 15 -6 0 -6 -7 2
-20z"/>
<path d="M11045 2579 c-11 -17 -2 -18 19 -3 17 12 17 14 4 14 -9 0 -20 -5 -23
-11z"/>
<path d="M11592 2578 c-9 -9 -12 -79 -12 -253 0 -239 3 -266 35 -265 5 0 2 5
-7 11 -16 9 -18 32 -18 254 0 222 2 245 18 254 9 6 12 11 7 11 -6 0 -16 -5
-23 -12z"/>
<path d="M12080 2583 c8 -3 19 -11 23 -17 6 -7 7 -6 4 4 -2 8 -12 16 -23 17
-13 2 -15 1 -4 -4z"/>
<path d="M2527 2573 c-10 -9 -9 -501 1 -506 4 -3 7 111 7 254 0 142 0 259 -1
259 0 0 -4 -3 -7 -7z"/>
<path d="M4678 2327 c2 -195 0 -252 -10 -259 -22 -14 -482 -10 -498 5 -12 10
-12 9 -1 -5 12 -16 36 -18 248 -18 142 0 242 4 254 10 18 10 19 24 19 260 0
137 -3 251 -7 253 -5 3 -7 -108 -5 -246z"/>
<path d="M5797 2573 c-10 -9 -9 -501 1 -506 4 -3 7 111 7 254 0 142 0 259 -1
259 0 0 -4 -3 -7 -7z"/>
<path d="M5244 2320 c0 -129 2 -182 3 -117 2 64 2 170 0 235 -1 64 -3 11 -3
-118z"/>
<path d="M5391 2532 c-23 -9 -43 -21 -44 -27 0 -12 91 -48 107 -42 6 3 -2 10
-19 16 -73 28 -73 27 -30 41 43 13 68 30 45 29 -8 0 -35 -8 -59 -17z"/>
<path d="M5850 2540 c0 -5 6 -10 13 -10 6 -1 26 -7 42 -14 l30 -13 -42 -13
c-24 -7 -43 -17 -43 -23 0 -5 6 -7 14 -4 8 3 32 11 55 18 23 7 41 17 41 23 0
6 -22 19 -49 29 -57 20 -61 20 -61 7z"/>
<path d="M8334 2320 c0 -129 2 -182 3 -117 2 64 2 170 0 235 -1 64 -3 11 -3
-118z"/>
<path d="M11110 2540 c0 -6 10 -8 24 -4 44 11 40 -16 -10 -67 l-48 -49 49 1
c29 1 39 4 23 6 -34 5 -35 10 -3 35 56 44 55 88 -1 88 -19 0 -34 -5 -34 -10z"/>
<path d="M11650 2541 c0 -6 12 -9 28 -8 33 2 38 -26 5 -31 -28 -4 -30 -22 -3
-22 30 0 26 -38 -4 -46 -14 -3 -30 -3 -35 1 -6 3 -11 2 -11 -3 0 -16 37 -20
62 -8 16 8 23 21 24 41 0 17 4 38 8 47 4 9 5 22 1 28 -8 13 -75 14 -75 1z"/>
<path d="M1520 2520 c0 -5 17 -10 37 -10 l37 0 -54 -55 -54 -55 59 2 c43 1 49
2 23 5 -21 2 -38 7 -38 12 0 4 20 27 45 51 25 24 45 48 45 52 0 4 -22 8 -50 8
-27 0 -50 -4 -50 -10z"/>
<path d="M2621 2504 c-44 -55 -10 -124 53 -108 38 9 32 21 -11 20 -35 -1 -38
1 -40 29 -5 52 33 80 81 60 14 -6 18 -5 14 6 -2 8 -21 15 -40 17 -29 2 -40 -2
-57 -24z"/>
<path d="M3146 2498 c16 -87 20 -99 29 -101 9 -2 83 108 84 126 2 23 -20 0
-47 -50 l-30 -57 -7 39 c-10 59 -15 75 -25 75 -5 0 -7 -15 -4 -32z"/>
<path d="M4245 2508 c-19 -83 -22 -109 -15 -113 9 -6 14 9 25 70 l8 40 17 -50
c22 -65 45 -71 54 -13 4 24 9 53 13 66 3 12 1 22 -5 22 -6 0 -13 -15 -17 -32
-15 -74 -17 -76 -34 -24 -18 55 -37 70 -46 34z"/>
<path d="M4801 2480 c-6 -28 -11 -61 -11 -72 0 -35 14 -10 26 45 l10 52 8 -42
c4 -24 12 -43 16 -43 5 0 21 19 35 43 15 23 24 33 21 22 -14 -60 -17 -85 -8
-85 10 0 32 82 32 115 0 29 -27 14 -50 -27 l-24 -43 -9 43 c-11 58 -33 54 -46
-8z"/>
<path d="M10540 2510 c0 -5 7 -10 15 -10 12 0 14 -7 9 -27 -12 -55 -16 -63
-30 -63 -8 0 -14 -4 -14 -10 0 -5 18 -10 40 -10 22 0 40 5 40 10 0 6 -7 10
-16 10 -10 0 -14 6 -10 18 3 9 8 34 12 55 6 35 5 37 -20 37 -14 0 -26 -4 -26
-10z"/>
<path d="M6988 2495 c-15 -48 -19 -85 -9 -85 5 0 11 12 13 27 2 18 10 29 21
31 16 3 18 -1 12 -27 -4 -20 -3 -31 4 -31 6 0 11 16 11 35 0 28 -4 35 -19 35
-11 0 -21 8 -23 18 -4 15 -5 15 -10 -3z"/>
<path d="M7070 2500 c0 -5 5 -10 10 -10 6 0 10 5 10 10 0 6 -4 10 -10 10 -5 0
-10 -4 -10 -10z"/>
<path d="M7115 2493 c-13 -31 -17 -85 -5 -78 5 3 10 17 10 31 0 15 6 24 15 24
10 0 15 -10 15 -29 0 -16 6 -31 15 -35 8 -3 15 -1 15 4 0 6 -5 10 -11 10 -11
0 -2 41 11 50 4 3 2 11 -6 18 -8 7 -14 8 -14 2 0 -5 -7 -10 -15 -10 -18 0 -20
16 -2 23 7 4 6 6 -4 6 -9 1 -20 -7 -24 -16z"/>
<path d="M7067 2467 c-4 -10 -7 -28 -7 -40 1 -20 2 -20 11 -4 6 10 9 28 7 40
-3 20 -4 20 -11 4z"/>
<path d="M6948 2268 c-22 -36 -25 -44 -13 -51 9 -5 15 -23 15 -48 0 -39 1 -40
33 -37 30 3 32 6 33 41 0 21 6 42 13 46 10 7 7 18 -14 50 -15 22 -30 41 -34
41 -3 0 -18 -19 -33 -42z m56 -3 c22 -34 21 -35 -25 -35 l-40 0 18 30 c21 36
26 37 47 5z m-4 -90 c0 -28 -4 -35 -20 -35 -16 0 -20 7 -20 35 0 28 4 35 20
35 16 0 20 -7 20 -35z"/>
<path d="M11132 2248 c-2 -61 -4 -68 -22 -68 -26 0 -25 -8 3 -44 l24 -29 21
31 c27 37 27 42 2 42 -17 0 -20 8 -23 68 l-3 67 -2 -67z"/>
<path d="M5317 2120 c-3 -11 -1 -20 4 -20 4 0 13 9 19 20 8 16 8 20 -3 20 -8
0 -17 -9 -20 -20z"/>
<path d="M5860 2130 c0 -5 5 -10 10 -10 6 0 10 5 10 10 0 6 -4 10 -10 10 -5 0
-10 -4 -10 -10z"/>
<path d="M3037 2076 c-5 -13 -42 -16 -249 -19 l-243 -2 241 -3 c206 -2 243 0
254 13 7 9 11 18 8 21 -3 3 -8 -2 -11 -10z"/>
<path d="M12100 2082 c0 -6 -8 -13 -17 -15 -16 -4 -16 -5 -1 -6 18 -1 34 16
24 26 -3 4 -6 1 -6 -5z"/>
<path d="M6889 2068 c13 -17 59 -18 716 -18 657 0 703 1 716 18 11 14 11 15
-1 5 -20 -19 -1410 -19 -1430 0 -12 10 -12 9 -1 -5z"/>
<path d="M11592 2038 c-9 -9 -12 -80 -12 -260 0 -236 1 -248 20 -258 12 -7
103 -9 252 -7 l233 2 -236 3 c-186 2 -239 5 -248 16 -8 9 -11 86 -9 257 l3
244 244 3 c171 2 248 -1 257 -9 9 -7 14 -8 14 -1 0 19 -33 22 -269 22 -171 0
-240 -3 -249 -12z"/>
<path d="M181 2026 c-8 -9 -11 -87 -9 -261 3 -211 5 -249 18 -252 11 -4 12 -2
2 4 -9 7 -12 66 -10 259 l3 249 384 3 c275 1 388 -1 397 -9 11 -9 14 -60 14
-245 0 -198 -2 -235 -16 -248 -8 -9 -11 -16 -5 -16 26 0 31 48 31 269 0 195
-2 232 -16 245 -13 14 -64 16 -398 16 -313 0 -386 -3 -395 -14z"/>
<path d="M1542 2028 c-9 -9 -11 -75 -10 -247 l2 -236 6 240 5 240 384 3 c297
2 387 -1 400 -10 14 -12 14 -11 2 5 -12 16 -44 17 -395 17 -284 0 -385 -3
-394 -12z"/>
<path d="M2356 2018 c-13 -19 -16 -60 -16 -244 0 -197 2 -224 18 -241 9 -10
14 -14 9 -7 -4 6 -6 121 -5 255 l3 244 1890 0 1890 0 3 -244 c2 -171 -1 -248
-9 -257 -6 -8 -7 -14 -2 -14 26 0 33 58 33 266 0 129 4 223 10 235 10 18 25
19 393 19 285 0 386 -3 395 -12 9 -9 13 -80 14 -247 l3 -236 2 233 c2 149 0
240 -7 252 -10 19 -23 20 -400 20 -373 0 -389 -1 -402 -19 -14 -20 -14 -20
-26 0 -12 19 -44 19 -1897 19 l-1884 0 -15 -22z"/>
<path d="M7531 2026 c-8 -9 -11 -87 -9 -261 3 -211 5 -249 18 -252 11 -4 12
-2 2 4 -9 7 -12 66 -10 259 l3 249 384 3 c275 1 388 -1 397 -9 11 -9 14 -59
14 -243 0 -128 -5 -238 -10 -246 -8 -13 -66 -16 -387 -20 l-378 -5 373 -3
c360 -2 373 -1 392 18 19 19 20 33 20 254 0 200 -2 237 -16 250 -13 14 -64 16
-398 16 -313 0 -386 -3 -395 -14z"/>
<path d="M8603 2033 c-7 -2 -13 -9 -13 -15 0 -7 5 -6 14 1 9 8 86 11 257 9
l244 -3 3 -244 c2 -185 -1 -247 -10 -259 -11 -13 -10 -14 2 -10 13 4 15 43 18
253 2 174 -1 252 -9 261 -9 11 -60 14 -253 13 -132 0 -247 -3 -253 -6z"/>
<path d="M9140 2020 c-7 -12 -9 -103 -7 -252 l2 -233 3 236 c2 186 5 239 16
248 9 8 86 11 257 9 l244 -3 3 -244 c2 -171 -1 -248 -9 -257 -7 -9 -8 -14 -1
-14 19 0 22 33 22 269 0 171 -3 240 -12 249 -9 9 -80 12 -260 12 -236 0 -248
-1 -258 -20z"/>
<path d="M9692 2028 c-9 -9 -12 -78 -12 -249 0 -236 3 -269 22 -269 7 0 6 5
-1 14 -8 9 -11 86 -9 257 l3 244 244 3 c171 2 248 -1 257 -9 9 -7 14 -8 14 -1
0 19 -33 22 -269 22 -171 0 -240 -3 -249 -12z"/>
<path d="M11625 2001 c-6 -11 9 -23 19 -14 9 9 7 23 -3 23 -6 0 -12 -4 -16 -9z"/>
<path d="M10214 1775 c0 -126 2 -177 3 -112 2 65 2 168 0 230 -1 62 -3 9 -3
-118z"/>
<path d="M270 1962 c-25 -21 -30 -69 -9 -83 19 -12 46 -11 54 1 4 6 -5 10 -20
10 -14 0 -28 6 -31 14 -9 24 15 56 42 56 14 0 22 4 19 10 -9 15 -30 12 -55 -8z"/>
<path d="M466 1963 c-13 -45 -18 -98 -8 -88 10 10 27 105 18 105 -2 0 -7 -8
-10 -17z"/>
<path d="M1621 1930 c-18 -29 -29 -55 -26 -59 4 -3 11 2 16 12 13 22 45 22 59
0 9 -14 10 -7 5 32 -4 28 -10 54 -15 58 -4 5 -22 -15 -39 -43z m39 0 c0 -11
-7 -20 -15 -20 -18 0 -19 12 -3 28 16 16 18 15 18 -8z"/>
<path d="M1706 1943 c-3 -21 -6 -47 -5 -58 l0 -20 8 20 c14 36 22 95 13 95 -5
0 -12 -17 -16 -37z"/>
<path d="M7620 1962 c-25 -21 -30 -69 -9 -83 19 -12 46 -11 54 1 4 6 -5 10
-20 10 -30 0 -41 20 -25 49 7 15 21 21 43 21 24 0 28 3 17 10 -22 14 -35 12
-60 -8z"/>
<path d="M7816 1963 c-13 -46 -18 -98 -8 -88 11 11 28 105 19 105 -3 0 -8 -8
-11 -17z"/>
<path d="M410 1960 c0 -5 -13 -10 -29 -10 -24 0 -29 -5 -35 -31 -8 -42 -8 -51
3 -45 4 3 11 19 14 36 5 21 12 30 27 30 16 0 19 -5 14 -29 -7 -31 11 -50 29
-32 8 8 7 11 -5 11 -11 0 -14 7 -10 25 2 14 11 25 19 25 12 0 12 2 -1 15 -17
17 -26 19 -26 5z"/>
<path d="M1749 1968 c-13 -67 -3 -117 19 -93 4 4 2 10 -4 12 -16 5 -4 53 13
53 12 0 12 2 -1 15 -13 14 -25 19 -27 13z"/>
<path d="M7705 1956 c-22 -25 0 -105 22 -81 5 4 2 10 -4 12 -17 6 -16 40 1 50
11 6 11 11 2 19 -8 8 -14 8 -21 0z"/>
<path d="M6276 1936 c-9 -14 -23 -38 -32 -52 -18 -29 -14 -43 6 -19 17 20 40
19 57 -2 13 -16 13 -12 8 32 -8 63 -19 74 -39 41z m24 -26 c0 -11 -7 -20 -15
-20 -17 0 -18 2 -9 24 9 23 24 20 24 -4z"/>
<path d="M6346 1923 c-3 -21 -6 -47 -5 -58 l0 -20 8 20 c14 36 22 95 13 95 -5
0 -12 -17 -16 -37z"/>
<path d="M6389 1948 c-13 -67 -3 -116 19 -93 3 3 1 9 -5 13 -16 10 -5 50 16
55 13 4 13 5 -2 6 -10 0 -15 6 -12 11 3 6 1 10 -4 10 -6 0 -11 -1 -12 -2z"/>
<path d="M7756 1938 c-12 -37 -13 -59 -5 -64 5 -3 9 4 9 15 0 12 9 30 20 41
l20 20 -20 0 c-11 0 -22 -6 -24 -12z"/>
<path d="M9398 1874 c-5 -4 -8 -36 -8 -71 0 -57 -2 -63 -21 -63 -19 0 -19 -2
7 -35 l27 -35 22 32 c21 31 22 33 4 36 -15 3 -19 14 -21 74 -2 38 -6 66 -10
62z"/>
<path d="M8782 1796 l-33 -24 29 -21 c37 -26 50 -27 48 -3 -1 14 10 18 69 23
l70 5 -74 2 c-68 2 -73 3 -68 22 7 25 0 25 -41 -4z"/>
<path d="M9977 1800 c5 -19 0 -20 -68 -22 l-74 -2 69 -3 c57 -3 69 -7 73 -23
7 -25 8 -25 44 1 l30 21 -32 24 c-40 29 -49 30 -42 4z"/>
<path d="M11826 1673 c-13 -45 -18 -98 -8 -88 10 10 27 105 18 105 -2 0 -7 -8
-10 -17z"/>
<path d="M11637 1673 c-3 -4 -8 -27 -12 -50 -6 -41 -5 -43 17 -43 41 0 70 28
66 63 -3 28 -7 32 -35 35 -17 2 -33 -1 -36 -5z m61 -26 c5 -23 -15 -47 -39
-47 -20 0 -23 10 -13 48 8 28 47 27 52 -1z"/>
<path d="M11741 1646 c-29 -34 11 -88 42 -57 9 9 5 11 -12 9 -13 -2 -26 3 -28
10 -3 8 6 12 27 12 25 0 31 4 28 18 -4 22 -41 27 -57 8z m39 -6 c0 -5 -7 -10
-16 -10 -8 0 -12 5 -9 10 3 6 10 10 16 10 5 0 9 -4 9 -10z"/>
<path d="M12096 1533 c-6 -14 -5 -15 5 -6 7 7 10 15 7 18 -3 3 -9 -2 -12 -12z"/>
<path d="M1530 1531 c0 -10 19 -25 25 -20 1 2 -3 10 -11 17 -8 7 -14 8 -14 3z"/>
<path d="M2322 1524 c-7 -8 -8 -14 -3 -14 10 0 25 19 20 25 -2 1 -10 -3 -17
-11z"/>
<path d="M6170 1531 c0 -10 19 -25 25 -20 1 2 -3 10 -11 17 -8 7 -14 8 -14 3z"/>
<path d="M8590 1531 c0 -10 19 -25 25 -20 1 2 -3 10 -11 17 -8 7 -14 8 -14 3z"/>
<path d="M10192 1524 c-7 -8 -8 -14 -3 -14 10 0 25 19 20 25 -2 1 -10 -3 -17
-11z"/>
<path d="M6960 1520 c-9 -6 -10 -10 -3 -10 6 0 15 5 18 10 8 12 4 12 -15 0z"/>
<path d="M9147 1519 c7 -7 15 -10 18 -7 3 3 -2 9 -12 12 -14 6 -15 5 -6 -5z"/>
<path d="M393 1503 c104 -2 270 -2 370 0 100 1 16 2 -188 2 -203 0 -285 -1
-182 -2z"/>
<path d="M1753 1503 c104 -2 270 -2 370 0 100 1 16 2 -188 2 -203 0 -285 -1
-182 -2z"/>
<path d="M3317 1503 c512 -2 1354 -2 1870 0 516 1 97 2 -932 2 -1028 0 -1451
-1 -938 -2z"/>
<path d="M6393 1503 c104 -2 270 -2 370 0 100 1 16 2 -188 2 -203 0 -285 -1
-182 -2z"/>
<path d="M8743 1503 c65 -2 168 -2 230 0 62 1 9 3 -118 3 -126 0 -177 -2 -112
-3z"/>
<path d="M9293 1503 c65 -2 168 -2 230 0 62 1 9 3 -118 3 -126 0 -177 -2 -112
-3z"/>
<path d="M9833 1503 c65 -2 168 -2 230 0 62 1 9 3 -118 3 -126 0 -177 -2 -112
-3z"/>
</g>
</svg>
